<?xml version="1.0" encoding="UTF-8"?>
<svg id="Layer_1" data-name="Layer 1" xmlns="http://www.w3.org/2000/svg" viewBox="0 0 800 522">
  <defs>
    <style>
      .cls-1, .cls-2, .cls-3 {
        stroke-width: 0px;
      }

      .cls-4 {
        opacity: .44;
      }

      .cls-2, .cls-3 {
        fill: #ff5400;
      }

      .cls-5 {
        opacity: .14;
      }

      .cls-3 {
        fill-rule: evenodd;
      }
    </style>
  </defs>
  <g class="cls-5">
    <g>
      <polygon class="cls-1" points="463.74 180.67 451.93 173.35 451.71 172.13 455.87 167.55 449.24 168.97 447.55 171.31 450.7 172.63 446.43 173.85 445.76 174.87 441.37 172.12 443.17 170.6 438.12 169.17 435.19 172.12 434.86 173.64 433.51 174.15 432.71 177.1 431.59 177.71 431.82 180.45 430.58 180.45 438.57 183.81 447.78 180.96 461.93 184.12 464.41 181.88 463.74 180.67 463.74 180.67"/>
      <polygon class="cls-1" points="495.42 192.76 494.41 188.6 491.37 185.94 491.71 184.62 494.86 183.2 491.48 183.1 486.21 172.53 488.45 172.94 488.56 169.28 485.31 167.95 475.76 174.05 476.21 175.68 478.22 176.09 477.55 178.02 485.87 186.35 485.19 186.46 484.85 188.79 483.39 190.22 490.13 195.6 496.2 194.79 495.42 192.76 495.42 192.76"/>
      <polygon class="cls-1" points="391.11 149.72 396.05 148.03 396.87 149.45 397.93 149.85 412.84 146.6 412.08 144.42 415.68 140.63 418.68 141.51 418.53 139.01 416.5 137.79 416.81 136.84 425.8 136.23 428.34 134.19 427.44 133.58 414.1 134.94 412.83 134.12 411.63 127.07 419.2 121.92 418.9 120.97 407.67 126.05 406.99 136.7 403.85 138.33 402.79 140.76 403.47 141.58 402.19 144.22 398.75 146.05 399.79 146.6 399.13 147.14 394.11 145.85 393.58 147.68 391.1 149.58 391.11 149.58 391.11 149.72 391.11 149.72"/>
      <polygon class="cls-1" points="450.14 195.71 447.11 197.04 439.91 195.5 437.11 196.83 431.94 195 425.75 184.83 423.4 186.76 421.03 185.74 420.58 187.68 423.95 191.64 421.72 193.16 420.99 195.44 418.45 195.2 411.26 186.35 411.7 184.83 396.09 170.7 393.95 173.24 402.27 181.18 402.49 182.19 409.12 185.34 408.78 186.56 406.65 185.44 404.62 186.26 406.21 188.69 405.19 189.42 405.3 190.13 401.93 192.26 401.37 194.09 399.68 195.11 394.06 191.95 399.79 192.15 402.93 188.8 387.88 175.48 385.29 174.97 379.57 178.52 375.75 177.4 372.38 178.32 371.7 181.88 367.09 183.92 363.84 188.49 364.39 190.22 362.82 190.83 361.92 192.97 351.25 196.94 350.69 198.15 353.05 199.88 386.66 193.57 389.57 194.69 392.71 205.57 401.04 208.11 403.17 210.35 411.26 212.89 415.08 206.37 419.23 205.06 419.46 205.67 441.37 209.84 450.14 207 453.17 199.78 453.17 199.78 450.14 195.71 450.14 195.71"/>
      <polygon class="cls-1" points="522.8 100.77 522.93 100.72 522.8 100.77 522.8 100.77 522.8 100.77"/>
      <polygon class="cls-1" points="682.13 292.6 686.18 294.23 690.83 292.74 691.72 290.98 691.12 289.76 687.38 291.79 678.83 290.84 676.15 310.36 678.83 309.68 679.14 301.96 681.54 303.58 684.24 309.28 686 308.4 686.03 308.46 686 308.4 686 308.4 682.59 299.65 686.03 297.08 680.19 297.89 678.54 295.73 679 293.01 682.13 292.6 682.13 292.6"/>
      <polygon class="cls-1" points="694.26 275.78 689.77 261.29 679.44 253.97 680.49 248 677.93 243.4 675.98 244.07 675.24 250.04 674.05 250.98 674.94 254.65 676.89 255.86 676.45 257.89 678.4 260.34 679.44 260.61 679.89 257.62 687.53 263.18 685.42 264 682.28 262.51 682.43 266.71 683.94 267.11 684.39 269.02 686.48 269.42 688.43 268.47 686.63 265.09 688.43 264 690.52 269.83 688.47 271.31 687.38 271.19 683.48 272.94 683.03 276.47 686.03 274.16 687.23 274.03 687.98 274.7 688.27 277.02 691.72 279.99 692.62 276.2 692.62 276.2 694.26 275.78 694.26 275.78"/>
      <polygon class="cls-1" points="667.62 304.86 667.9 304.66 667.62 304.86 667.62 304.86"/>
      <path class="cls-1" d="m613.22,250.31l2.32-1.63,5.02,16.88-1.06.34.45,8,1.88-.54,4.85,7.87-.51,1.28,10.86,10.31-14.67-27.46,1.57-6.5,1.19-.75.97,1.22-.14,1.97,2.69-.48,5.62,6.3,1.35-.41,1.72,1.09-.31,3.86,11.02-8.54-.97-8.13-9.44-9.89-.91-4.54,6.08-4.34,2.77.4.52,2.98.98.47,4.05-4.27,2.09.68,9.51-4.27,9.37-20.27-3.44,1.02-.45-3.46.74-1.42-9.5-8.2,4.87-5.7,1.64.13-5.84-1.89-3.82,1.49-.23-1.56-4.35-1.63.08-1.42,6.65-5.02,1.5,1.15-.9,1.89.53,2.79,6.58-2.86,2.55.75.45,4.07,5.32,2.5,2.4,4.48-.68,1.83,1.65,1.42,4.27-1.49-.15-7.46-8.16-5.36,3.44-3.05-.3-2.64,3.15-3.94,2.39,1.5,3.6-2.04,2.1-15.12-7.34-11.46-7.2-2.1-1.34,2.03-3.37-4.67-1.06,1.69-3.89-1.02,5.17-10.5,18.13-.74.53,1.29,7.85-.75-2.62-5.15,5.03-1.56,4.26,3.65,2.75-2.8h0s.1.02.1.02l-.1-.02-1.53-1.67,1.94-.61,2.17,3.59-3.08,10.5,16.34,14.98.89-.2.45-3.19-1.35-1.21,2.32-.83-2.25-2.57.74-1.42,1.73.47-3.52-4.41,1.36.47-6.3-5.21-1.51.2-.82-1.48.45-1.15-1.56-1.96,3.49-1.09,1.59.4.82,1.09,1.58-1.35,6.34,1.02.09-1.91,3.68-3.8,7.34-.6-8.76-4.21.06-1.15,1.5-1.42-.83-1.15,16.78,3.39-.22-3.45-53.34-10.44,4.13,3.12-23.61-1.76-2.09-2.04-45.09-4.26,3.35,2.31-13.18-1.16.09,2.78-21.21-6.84-2.24,1.96-6.37-.2-1.13-1.08-8.39.07-3.22-2.11-2.39.49-1.8,1.76-5.09.34,7.42-3.93-1.65-2.11-46.31,3.13,2.26,1.69-9.91.67,6.68,3.73-10.42-1.35-.97,1.15,1.28,1.29.07,1.02-6.89-4.95,6.51,9.83,1.65-1.01-.21.81-.38.13-.37,5.08-2.1.41-1.94-.61,2.25-1.56.3-2.11-6.82-7.04-.37-3.19-4.88-1.62-1.64.68-1.05,2.51.3,1.02-2.1,1.29,6.66,6.84-19.7-5.62-1.57.74,3.75,3.93-24.05,3.79-1.64-1.08,1.87-1.36-2.1-1.83h-5s2.15,3.8,2.15,3.8l1.42.6-.23,1.16-7.93,1.9,1.05,1.28-1.28.68-4.19-1.29-2.03.54.74,1.15,2.55.54-6.21-1.02-3.29-4.27,14.16-.6.67-1.36-.45-1.15-22.85-4.47,1.51-1.7-33.12,4.95,3.15.27-9.51,11.38-6.97.34-2.99,2.58.14,8.68,2.1,1.28,9.52-2.64,2.54,4.67-.3,3.25-3.44.82.97-1.35-1.13-2.11.23-1.49-3.52.88-.52,6.99.6.88-1.13,1.29-8.61,1.83-.68,3.19-11.01,6.5-3.74-1.63.75,3.67-5.99-.89-1.5,1.7,5.99,3.11,2.1,4.2-2.62,5.56-12.29-.69-.53-.54h-1.35l-1.12,1.15-1.65.07-.45,15.31,5.33,1.63,1.12,2.16.67.41.22.55-8.91,8.2-1.88,7.66-5.62,4.81-3,.61-5.32,6.44v2.3l-5.84,7.93,1.5,5.22-1.04.94-.68,11.26-1.8,1.28.08.82,1.58,1.15.9,6.51,22.62,19.99,12.89-2.03,2.09.88,15.06-4.4,2.85,1.01,3.15,4.88,6.9-.47,3.07,2.58-2.62,11.73,11.69,20.06-1.2,1.49,13.11,61.69-1.12,2.64,2.09,4.34,2.39,1.21,18.66-3.11,14.16-13.63,1.34-7.04,6.66-4.68-.15-12.34,14.91-10.83-2.03-30.85,30.27-43.65-17.68,3.93-3-2.84.45-2.03-27.57-42.16,3.07-.27,21.88,31.52-2.63-2.18-.52,1.43,6.6,10.5,4.2-.74.74-1.5,24.28-9.69.67-2.3,2.39-.14.68-1.56,2.32-1.29.29-3.39,1.73.47.53-1.15-.6-.74,2.62-3.46.07-1.23-9.66-7.46-.15-2.71-10.18,6.24-1.42-.54-.22-3.33-1.8-2.1-1.35,2.38-6.74-10.99,5.47-1.42,10.26,9.29,3.82-.21,2.1-1.42,2.09.95.3,2.24,23.98,2.16,8.99,6.32.97-.07-2.38.95,5.01,4.81,3.07-1.7.15-1.96.98.07,13.33,36.87,2.47.95,2.39-3.05,1.73-.27,1.65.95,2.47,7.8,2.25-1.83.97-3.13-5.85-5.35.31.94-.31.34-1.72-.61,1.81-16.54,18.8-16.54.15,1.02,7.12-2.37.14-.82,5.63,8.01,1.65-.21-.52,2.24,3.29,3.05-.23,4.88,3.07.96,2.64-2.05h0Zm-219.64-102.63l.53-1.83,5.02,1.29.67-.54-1.05-.55,3.45-1.83,1.28-2.64-.68-.82,1.06-2.44,3.15-1.63.67-10.64,11.23-5.08.3.95-7.56,5.15,1.2,7.05,1.27.81,13.34-1.35.9.61-2.54,2.04-8.99.61-.31.95,2.03,1.22.15,2.51-2.99-.88-3.6,3.79.76,2.18-14.91,3.25-1.06-.41-.82-1.42-4.94,1.69v-.13h0s2.48-1.9,2.48-1.9h0Zm59.59,52.09h0l-3.04,7.22-13.37,3.45-17.3-4.78-.23-.61-4.15,1.31-3.82,6.51-8.09-2.54-2.14-2.24-8.32-2.54-3.14-10.88-2.91-1.12-33.61,6.31-2.35-1.73.56-1.21,10.67-3.97.9-2.13,1.57-.61-.55-1.73,3.25-4.57,4.61-2.04.68-3.56,3.37-.92,3.82,1.12,5.72-3.56,2.59.51,15.05,13.32-3.14,3.35-5.73-.2,5.63,3.15,1.68-1.02.56-1.83,3.38-2.13-.11-.71,1.02-.72-1.59-2.44,2.04-.81,2.13,1.12.34-1.22-6.63-3.15-.22-1.02-8.32-7.93,2.13-2.54,15.61,14.13-.44,1.52,7.19,8.85,2.54.24.73-2.28,2.24-1.52-3.37-3.96.45-1.94,2.37,1.01,2.35-1.93,6.19,10.17,5.17,1.83,2.81-1.32,7.2,1.54,3.03-1.33,3.03,4.06h0Zm11.23-17.9h0s-2.47,2.24-2.47,2.24l-14.15-3.15-9.21,2.85-7.99-3.35h1.24l-.22-2.74,1.12-.61.79-2.95,1.35-.51.33-1.52,2.93-2.96,5.05,1.43-1.8,1.53,4.39,2.74.68-1.02,4.27-1.22-3.14-1.32,1.68-2.34,6.63-1.42-4.16,4.58.22,1.22,12.48,8.53h0Zm25.73,13.72l-6.74-5.38,1.46-1.43.34-2.33.67-.1-8.32-8.34.67-1.93-2.02-.41-.45-1.63,9.55-6.1,3.25,1.32-.11,3.66-2.24-.41,5.27,10.57,3.38.1-3.15,1.42-.34,1.32,3.04,2.65,1.79,6.19-6.07.81h0Z"/>
      <polygon class="cls-1" points="332.83 125.64 339.13 123.82 340.47 121.58 338 119.75 326.54 120.97 323.17 119.14 319.13 121.18 323.84 121.99 323.84 123.82 326.98 126.26 332.83 125.64 332.83 125.64"/>
      <polygon class="cls-1" points="328.33 110.81 331.26 103.48 336.42 100.84 335.08 100.42 335.52 97.38 338.67 96.36 336.42 92.7 352.16 86.6 339.8 87.82 339.34 86.4 264.51 89.86 264.29 91.28 249.67 92.91 248.78 94.33 264.06 98.19 267.21 106.33 272.15 108.36 266.75 109.17 266.53 111.42 271.03 110.61 270.57 112.03 267.43 112.64 264.29 116.09 266.53 132.56 277.33 134.59 287.88 122.8 328.33 110.81 328.33 110.81"/>
      <polygon class="cls-1" points="744.76 308.46 744.02 306.03 725.14 298.16 717.18 302.64 711.49 295.99 705.2 296.81 710.9 301.28 712.1 305.35 723.33 308.06 727.08 316.2 736.82 319.04 739.06 316.74 745.81 317.55 748.95 320.95 755.7 322.7 747.91 312.95 750.6 312.26 744.76 308.46 744.76 308.46"/>
      <polygon class="cls-1" points="675.39 280.4 675.39 280.4 668.65 276.47 653.82 290.56 649.62 289.76 649.92 290.98 648.88 293.28 652.62 303.72 667.62 304.86 674.49 292.47 671.8 288.26 675.39 280.4 675.39 280.4"/>
      <polygon class="cls-1" points="749.85 354.28 739.82 332.87 737.12 333.14 735.01 323.65 734.27 323.38 727.38 341.95 721.69 339.92 717.18 331.65 717.78 330.03 720.18 328.26 720.18 327.18 715.08 327.31 707.75 323.65 708.58 326.84 704.45 327.58 700.4 333 700.85 333.95 696.5 334.9 695 332.46 690.51 332.6 689.92 335.44 687.67 334.9 685.71 337.88 683.78 338.56 682.72 340.59 682.13 338.43 679.88 340.33 679.13 343.44 657.11 354.42 656.66 353.34 655.01 354.96 655.01 358.36 653.36 360.38 654.26 363.5 651.71 364.73 650.82 385.6 649.47 385.74 653.21 389.27 694.11 380.32 700.11 385.07 699.81 387.64 701.6 388.45 708.05 383.3 704.74 387.37 704.89 388.59 706.71 387.23 707.45 387.77 702.65 392.25 708.05 391.99 707.14 393.87 714.49 399.03 719.29 397.26 721.08 400.39 726.63 396.45 730.97 396.04 754.49 362.56 749.85 354.28 749.85 354.28"/>
      <polygon class="cls-1" points="716.59 404.86 716.59 404.86 714.19 403.23 714.19 402.82 711.35 411.5 714.34 411.91 722.44 404.04 716.59 404.86 716.59 404.86"/>
      <polygon class="cls-1" points="797.8 397 797.8 397 794.8 393.87 795.55 389.12 792.84 387.64 790.3 399.03 786.41 400.39 788.21 403.5 785.66 405.54 780.72 404.17 755.7 418.55 759.59 420.45 783.71 406.08 785.81 406.62 793.9 402.69 794.8 400.24 796.45 400.39 801.69 395.09 797.8 397 797.8 397"/>
      <polygon class="cls-1" points="673.74 235.39 674.64 225.9 673.14 226.44 671.5 232.4 673.74 235.39 673.74 235.39 673.74 235.39"/>
      <polygon class="cls-1" points="654.42 316.87 691.12 317.27 685.73 321.07 685.58 322.82 695.62 316.46 659.36 314.84 661.01 312.81 652.33 311.17 651.42 312.94 640.49 310.64 638.68 312.53 654.42 316.87 654.42 316.87"/>
      <polygon class="cls-1" points="649.48 240.81 649.48 240.82 647.83 240.55 646.32 241.09 645.58 240.82 643.92 242.85 644.82 245.15 646.92 245.15 648.58 244.07 649.48 240.81 649.48 240.81"/>
      <polygon class="cls-1" points="640.63 308.19 640.63 308.19 641.53 301.41 639.74 301.68 634.34 296.26 635.68 294.63 612.91 279.59 638.38 310.64 640.63 308.19 640.63 308.19"/>
      <polygon class="cls-1" points="490.96 327.85 490.96 327.85 477.92 338.43 474.93 362.02 480.77 363.65 484.51 360.94 491.26 337.35 493.35 336.39 491.99 327.31 490.96 327.85 490.96 327.85"/>
      <polygon class="cls-1" points="208.84 94.94 211.39 94.67 211.24 91.41 206.74 91.95 208.84 94.94 208.84 94.94"/>
      <polygon class="cls-1" points="196.26 93.05 196.26 93.05 203.14 94.54 205.25 92.91 196.7 91.55 196.26 93.05 196.26 93.05"/>
      <polygon class="cls-1" points="171 239.42 171 239.42 156.4 232.92 144.6 235.06 145.06 237.09 150.33 233.43 169.21 240.75 171 239.42 171 239.42"/>
      <polygon class="cls-1" points="342.64 154.12 342.27 155.41 345.19 156.36 351.71 154.58 352.61 149.64 354.03 148.9 353.58 147 348.34 146.59 346.77 148.35 347.45 148.49 346.69 149.17 345.8 149.17 345.04 148.76 343.92 148.9 343.54 149.51 344 150.46 343.24 151.14 345.04 152.01 344.9 152.96 343.92 153.37 343.92 153.37 342.64 154.12 342.64 154.12"/>
      <polygon class="cls-1" points="725.41 135.01 725.43 135.08 725.41 135.01 725.41 135.01"/>
      <polygon class="cls-1" points="352.83 145.37 352.83 145.37 354.62 146.39 355.6 146.19 354.93 147.14 358.22 148.49 358.9 149.44 358.75 151.47 357.02 151.61 355.68 152.96 356.8 152.96 356.95 153.92 354.11 154.93 354.18 155.95 357.48 156.29 357.78 156.76 352.68 159.88 353.65 160.29 354.25 159.61 368.34 157.85 369.69 152.77 366.7 152.62 366.77 151.27 361.45 143.07 362.87 141.58 359.65 140.5 361.9 137.04 361.67 136.36 360.63 136.76 359.65 138.06 356.95 137.99 353.36 141.1 353.2 143.67 354.11 144.09 353.28 144.49 352.83 145.37 352.83 145.37"/>
      <polygon class="cls-1" points="452.31 113.99 452.41 114 452.31 113.99 452.31 113.99"/>
      <polygon class="cls-1" points="194.01 99.69 205.25 100.76 207.49 97.92 209.59 99.01 208.69 100.09 227.71 100.63 218.88 98.33 220.98 96.57 230.87 96.98 231.91 95.49 233.41 96.71 271.02 85.32 215.28 88.98 214.68 92.78 218.88 94.4 221.42 94.13 200.3 99.01 199.25 96.44 194.01 99.69 194.01 99.69"/>
      <polygon class="cls-1" points="269.08 309.28 256.04 301.55 246.15 301.13 244.51 301.95 244.51 298.7 237.01 295.85 234.46 297.89 234.46 295.31 230.58 293.14 231.03 290.29 229.22 288.94 227.58 283.38 208.7 275.78 207.35 272.94 202.4 270.77 202.26 269.29 197.65 266.16 193.27 265.96 192.6 267.17 178.77 261.59 174.62 266.06 174.84 269.32 172.93 267.48 174.28 265.75 174.28 263.31 175.97 262.3 175.29 260.98 165.85 264.63 163.84 268.91 148.89 270.64 143.27 265.25 145.4 253.76 142.03 251.52 131.58 251.52 138.32 236.88 129.33 237.79 127.43 242.88 117.87 245.22 115.51 243.59 115.41 244 111.02 234.95 114.85 221.12 126.87 214 131.47 214.61 132.59 215.63 135.41 215.21 138.22 212.68 145.28 212.48 147.42 214.62 150.56 213.5 153.27 216.14 152.48 219.5 155.52 226.01 156.97 226.51 157.65 212.07 177.09 196.62 176.86 192.76 178.67 192.46 180.45 189 182.25 189.19 185.74 185.23 195.18 182.8 196.3 181.68 194.96 180.66 197.76 176.89 212.04 172.32 207.65 174.86 208.55 176.79 220.35 173.14 221.59 171.41 224.74 170.9 224.06 169.67 224.29 168.05 219.78 171.3 215.41 171.11 213.39 168.36 217.1 162.77 214.07 161.95 203.05 166.43 208.78 162.26 211.14 161.95 213.84 159.71 236.98 156.05 237.44 156.56 227.54 166.12 236.09 166.32 236.65 167.74 238.55 166.52 239.57 168.86 242.95 166.52 241.93 163.88 242.83 161.43 238.9 161.54 238.44 156.36 241.15 153.3 239.34 148.12 233.05 143.95 234.29 141.31 232.61 133.27 223.17 138.87 220.69 136.94 220.92 134.39 223.05 132.56 219.56 131.55 219.34 130.73 215.97 128.09 214.96 129.01 207.54 128.39 199.84 138.56 202.04 140.19 200.35 143.84 190.8 147.61 189 154.32 184.51 157.07 182.51 152.69 184.84 153.1 185.18 151.67 183.38 151.78 185.86 146.9 180.01 146.49 178.67 145.07 175.74 144.66 175.51 143.54 171.02 141.41 168.32 141.71 168.88 137.55 166.19 137.14 198.1 120.26 198.55 120.46 191.81 125.34 194.17 125.64 193.83 126.87 199 124.53 201.93 126.05 204.73 125.95 204.62 124.02 199.22 120.26 198.78 119.24 200.68 119.45 202.27 120.67 210.69 116.59 210.47 115.28 213.05 113.04 211.36 111.42 225.29 113.55 224.17 114.46 219.56 114.98 218.44 117 221.82 117.42 224.39 114.98 227.2 114.77 227.65 117.21 221.7 119.85 221.58 121.69 213.95 121.58 211.59 123.31 213.5 124.83 221.24 125.04 222.83 127.79 231.59 128.7 229.22 126.16 235.18 128.7 236.08 126.46 238.1 125.34 234.96 121.58 235.07 120.06 241.92 122.6 242.94 121.07 248.55 119.04 242.83 115.17 241.25 115.58 239.8 114.05 242.04 110.9 240.24 109.28 237.43 108.77 236.75 107.44 223.95 103.28 222.82 103.58 221.37 102.56 212.49 106.02 212.6 102.56 202.59 107.75 202.71 110.19 207.99 111 198.1 117.51 197.65 115.88 199.9 114.66 196.53 112.53 195.97 106.83 207.88 102.06 198.55 102.37 187.65 110.09 187.43 112.43 183.16 111.72 178.67 113.34 178.67 115.58 159.11 114.87 158.89 116.29 145.74 116.19 149.78 114.56 134.29 112.13 133.84 110.6 130.23 111.92 129.22 109.79 78.21 108.35 78.43 107.82 78.54 107.75 49 114.46 50.12 118.93 45.73 119.34 46.86 117.91 35.39 120.76 35.62 121.88 34.83 123.2 41.46 123.81 42.25 125.84 24.27 130.62 22.03 135.4 25.96 134.79 23.71 137.54 29.55 137.85 0 149.13 46.4 134.59 46.18 136.63 71.91 135.71 74.16 138.76 73.48 147.71 77.53 147.3 76.97 158.18 73.82 157.57 73.71 160.21 77.76 163.87 62.7 185.53 64.16 200.99 70.12 205.67 72.81 217.76 70.57 219.19 73.15 222.44 74.16 222.54 76.19 224.67 75.4 227.52 79.9 233.32 81.81 231.59 73.94 213.49 74.73 209.33 77.99 209.94 83.6 222.43 82.93 225.18 91.13 234.03 91.02 237.59 89.78 239.31 90.46 241.76 97.31 246.33 98.43 246.13 111.58 252.14 115.97 250.91 144.4 272.88 145.41 272.27 150.35 275.22 152.26 274.2 151.71 272.27 153.49 270.64 155.07 270.64 156.76 271.86 156.64 273.28 158.67 276.23 158.78 284.47 154.51 288.64 154.4 291.07 151.81 291.99 149.56 300.53 151.81 302.36 148.33 306.23 179.8 344.53 187.42 410.55 189.37 410.42 188.17 407.44 189.67 407.57 190.86 414.21 189.67 413.26 187.87 415.02 189.37 416.25 188.33 420.58 190.42 420.85 191.92 421.94 190.42 424.24 207.5 440.78 217.54 443.08 221.88 440.24 209.75 432.91 208.7 430.2 210.34 429.12 212.44 422.75 207.65 419.23 207.94 416.1 209.75 415.16 210.5 410.41 212.13 408.65 208.85 408.24 207.35 406.08 207.35 404.45 212.3 404.72 213.65 402.96 213.79 399.16 222.03 398.08 222.49 390.75 219.78 386.82 218.28 387.09 219.64 385.88 227.12 388.59 234.02 376.25 236.26 376.25 239.56 368.66 238.81 364.18 255.45 354.69 269.08 309.28 269.08 309.28 269.08 309.28"/>
      <polygon class="cls-1" points="170.79 246.24 170.79 246.24 184.82 243.39 181.79 241.25 174.04 241.46 173.7 244.41 170 244.41 169.88 244.71 170.79 246.24 170.79 246.24"/>
      <polygon class="cls-1" points="139.78 108.09 139.78 108.09 151.6 105.38 148.31 111.35 153.85 114.87 173.63 113.79 176.18 112.17 176.78 103.08 173.78 104.03 173.19 103.9 171.23 106.06 158.65 100.77 138.43 106.33 139.78 108.09 139.78 108.09"/>
      <polygon class="cls-1" points="186.82 104.84 186.82 104.84 182.77 104.97 193.72 105.25 194.31 101.86 186.82 102.81 186.82 104.84 186.82 104.84"/>
      <polygon class="cls-1" points="184.57 94.27 186.97 92.23 181.27 93.18 181.12 94.13 178.66 95.08 184.57 94.27 184.57 94.27"/>
      <polygon class="cls-1" points="162.84 98.6 170.48 102.27 184.57 99.69 185.47 98.33 183.52 97.79 183.97 96.43 177.23 99.01 170.34 96.97 171.68 95.62 171.23 94.27 156.41 97.38 162.84 98.6 162.84 98.6"/>
    </g>
  </g>
  <g class="cls-4">
    <g>
      <rect class="cls-2" y="511.4" width="800" height="11.71"/>
      <path class="cls-3" d="m100.25,456.65v61.75l3.46,4.7h-37.35l2.84-4.7h.09v-37.35l-1.86-5.15h6.65-4.7c-.62-7.54-7.01-13.57-14.64-13.57s-14.11,6.03-14.73,13.57h-4.79,6.74l-1.86,5.15v37.35h.09l3.37,4.7H6.3l2.75-4.7v-68.67l-8.07-6.3h-.27v-.62h8.34v-10.2h91.21v10.2h8.43v.62h-.44l-7.99,6.3v6.92Z"/>
      <path class="cls-3" d="m102.83,469.96v11.35h.62v41.79h106.73v-41.79h1.15v-12.68h-1.51v-94.76h2.13v-2.66h-4.26v-3.99h-1.51v-1.24h-.44l-1.69-3.02-1.77-3.2-1.69,3.2-1.69,3.02h-.44v1.24h-25.2v3.99h-4.35v2.66h2.4v43.21h-10.47l-1.69-12.69-.35-3.37v-18.1h2.84v-2.22h-2.84v-2.4h-2.4v2.4h-2.84v2.22h2.84v17.65l-.53,3.81-1.68,12.69h-11.8v-43.21h2.13v-2.66h-4.26v-3.99h-24.67v-1.24h-.44l-1.69-3.02-1.68-3.2-1.77,3.2-1.6,3.02h-.53v1.24h-2.04v3.99h-4.35v2.66h2.39v94.76h-1.06v1.33h0Zm39.57-48.89h11.89v7.45l-.71,1.15-4.08,6.39h-7.1v-14.99Zm18.46,0h10.47v14.99h-5.68l-3.99-6.39-.8-1.15v-7.45Zm-16.59,32.65c.35-6.39,5.32-11.44,11.62-11.89-6.3.44-11.27,5.59-11.62,11.89h0Zm13.57-11.89c2.66.18,5.06,1.24,7.01,2.84-1.95-1.59-4.35-2.66-7.01-2.84h0Zm45.6-4.88h-25.73v-19.52h25.73v19.52Zm-9.23-16.41c.89,0,1.68.53,1.68,1.15v13.22h-3.37v-13.22c0-.62.71-1.15,1.69-1.15h0Zm-6.65,0c.89,0,1.69.53,1.69,1.15v13.22h-3.37v-13.22c0-.62.71-1.15,1.68-1.15h0Zm10.47,22.89h3.46v-3.46h-3.46v3.46Zm-18.19,0h3.55v-3.46h-3.55v3.46Zm-53.06-22.89c.89,0,1.68.53,1.68,1.15v13.22h-3.37v-13.22c0-.62.71-1.15,1.69-1.15h0Zm-6.65,0c.89,0,1.6.53,1.6,1.15v13.22h-3.28v-13.22c0-.62.71-1.15,1.68-1.15h0Zm10.47,22.89h3.46v-3.46h-3.46v3.46Zm-18.19,0h3.46v-3.46h-3.46v3.46Zm91.3,77.1h-2.4v-23.42c0-7.19-10.56-13.04-10.56-13.04,0,0-10.56,5.86-10.56,13.04v23.42h-3.46v-39.22h26.97v39.22h0Zm-33.45,0h-2.75v-23.42c0-7.19-10.56-13.04-10.56-13.04,0,0-10.56,5.86-10.56,13.04v23.42h-3.02v-39.22h26.88v39.22Zm-33.45,0h-3.02v-23.42c0-7.19-10.56-13.04-10.56-13.04,0,0-10.56,5.86-10.56,13.04v23.42h-2.66v-39.22h26.79v39.22h0Z"/>
      <path class="cls-3" d="m547.85,516.81h1.77l-13.4-25.91c-7.01-6.74-16.59-10.82-27.06-10.82-9.58,0-18.28,3.46-25.02,9.14l-14.28,27.59h2.57v6.3h-33.71v-6.3h4.43l27.77-53.67v-8.07h5.95l9.85-28.22v-.62h.18l2.75-7.98h-1.06v-7.45h3.11v-1.42h-4.61v-8.08h7.01c5.23-40.99,7.72-111.43,8.52-133.97h-.18v-1.77h.27l.09-4.35h-1.24v-7.28h3.2v-8.96h3.73v-12.69h1.24v-11.62h1.42v11.62h1.33v12.69h3.64v8.96h3.28v7.27h-1.33l.18,4.35h.18v1.77h-.09c.44,12.69,1.33,40.72,3.11,70.18l.09.27-.09.09c1.06,17.83,2.39,36.02,3.99,51.64.44,4.26.97,8.07,1.33,11.8h7.1v8.08h-4.61v1.42h3.02v7.45h-.71l2.75,7.98,10.02,28.84h3.1v7.54l.62-.27,28.21,54.47h5.32v6.3h-33.71v-6.3h0Zm-68.49-63.61h0l8.96-5.23-5.23-5.06-3.73,10.29Zm5.06-14.46h0l7.98-5.23-4.52-4.52-3.46,9.76Zm4.7-13.31h0l5.86-3.73-3.55-3.01-2.31,6.74Zm40.46-7.19h-.27l-3.37,3.19,5.95,3.46-2.31-6.65Zm3.81,10.83h0l-4.17,4.26,7.18,4.52-3.02-8.78Zm4.7,13.49h0l-5.68,5.41,9.49,5.5-3.82-10.91Zm-28.66-181.35h0l-2.13,1.77-2.13-1.77h4.26Zm-2.75,2.4h0l-2.48,1.95.18-3.99,2.31,2.04Zm-1.33,1.95h0l1.77-1.51,1.6,1.51h-3.37Zm2.49-2.04h0l1.77-1.42v3.01l-1.77-1.59Zm1.77,3.99h0l-2.66,2.75-2.75-2.93h5.41v.18Zm-3.37,3.46h0l-2.22,2.4.09-4.79,2.13,2.39Zm-2.22,3.55h0l2.84-2.93,2.57,2.93h-5.41Zm3.46-3.64h0l2.13-2.22v4.52l-2.13-2.31Zm2.13,5.41h0l-2.84,2.84-2.57-2.93h5.41v.09Zm-3.64,3.46h0l-2.31,2.48.17-5.06,2.13,2.57Zm-2.4,3.73h0l3.11-3.02,2.57,3.11h-5.68v-.09h0Zm3.73-3.73h0l2.31-2.31v4.97l-2.31-2.66Zm2.31,5.68h0l-2.93,2.84-2.75-3.02h5.68v.18h0Zm-3.73,3.55h0l-2.57,2.48v-.53l.18-4.61,2.4,2.66Zm-2.4,3.46h0l3.02-2.84,2.57,2.84h-5.59Zm3.64-3.46h0l2.48-2.31v4.97l-2.48-2.66Zm2.48,5.77h0l-2.93,2.57-3.2-3.19h5.94l.18.09v.53h0Zm-3.73,3.19h0l-2.93,2.48.27-5.23,2.66,2.75Zm-2.84,3.55h0l3.46-2.93,2.84,2.93h-6.3Zm4.08-3.55h0l2.48-2.04v4.44l-2.48-2.4Zm4.17-3.46h0l.26-.35h5.94l-3.01,3.19-3.19-2.75v-.09h0Zm-8.08-.36h0v.09-.09Zm6.39,9.14h0l-3.37,2.84-2.93-2.93h6.3v.09Zm-4.08,3.46h0l-2.93,2.48.18-5.23,2.75,2.75Zm-3.11,3.64h0l3.73-3.02,3.02,3.19h-6.74v-.18h0Zm4.43-3.64h0l2.57-2.31v5.06l-2.57-2.75Zm2.49,5.59h0l-3.37,2.93-3.02-3.11h6.39v.18Zm-4.08,3.55h0l-3.11,2.75.18-5.68,2.93,2.93Zm-2.84,3.55h0l3.46-2.93,2.93,2.93h-6.39Zm4.26-3.55h0l2.66-2.39v2.84l-.09,1.42v.89l-2.57-2.75Zm-4.08-3.73h0l-.27.8.09-.8h.18Zm6.39,8.96h0l-3.19,2.84-2.84-2.84h6.03Zm-3.99,3.55h0l-3.37,3.02.27-6.03,3.1,3.02Zm-2.75,3.82h0l3.46-3.19,3.28,3.19h-6.74Zm4.26-3.9h0l2.75-2.39-.09,1.51v2.31l-.09,1.07-2.57-2.49Zm1.95,5.59h0l-3.1,2.57-2.57-2.57h5.68Zm-3.99,3.46h0l-3.37,2.75.45-5.86,2.93,3.11Zm-2.84,3.81h0l3.64-3.11,2.93,3.11h-6.57Zm4.61-3.81h0l2.75-2.49v1.16l-.18,3.99-2.57-2.66Zm2.48,5.5h0l-3.37,2.84-2.66-2.84h6.03Zm-4.26,3.54h0l-3.9,3.37.45-6.92,3.46,3.55Zm-2.57,3.73h0l3.37-2.84,2.84,2.84h-6.21Zm4.35-3.73h0l2.48-2.04v.36l-.09.44v2.31l-.09,1.42-2.31-2.48Zm1.69,5.41h0l-3.19,2.57-2.48-2.57h5.68Zm-4.08,3.46h0l-3.9,3.28.53-6.74,3.37,3.46Zm-2.75,3.81h0l3.55-3.02,3.02,3.02h-6.57Zm4.53-3.81h0l2.84-2.48-.09.98v.71l-.18,3.37-2.57-2.57Zm1.68,5.5h0l-3.37,2.75-2.66-2.75h6.03Zm-4.35,3.46h0l-3.64,2.93.53-6.3,3.11,3.37Zm-2.93,3.82h0l3.81-2.93,2.66,2.93h-6.48Zm4.61-3.73h0l3.37-2.57c-.09,1.86-.18,3.9-.36,5.77l-3.02-3.19Zm2.39,5.5h0l-3.37,2.57-2.57-2.57h5.95Zm-4.26,3.37h0l-4.17,3.28c.18-2.13.35-4.44.53-6.65h.36l3.28,3.37Zm-2.93,3.81h0l3.64-3.02,2.84,3.02h-6.48Zm4.61-3.73h0l3.02-2.4c-.09,1.78-.18,3.55-.35,5.24l-2.66-2.84Zm1.15,5.41h0l-2.93,2.39-2.22-2.39h5.15Zm-3.9,3.19h0l-3.9,3.02c.27-1.95.44-4.08.53-6.21h.44l2.93,3.19Zm-3.37,4.17h0l4.08-3.37,3.29,3.37h-7.36Zm5.06-4.08h0l3.55-2.83c-.18,1.95-.27,4.08-.53,5.94l-3.02-3.11Zm2.4,5.77h0l-3.9,3.02-2.75-3.02h6.65Zm-4.79,3.73h0l-3.82,3.19h-.27c.18-2.22.36-4.52.62-6.83l3.46,3.64Zm-2.04,3.19h0l2.84-2.3,2.13,2.3h-4.97Zm3.82-3.02h0l3.37-2.66c-.27,1.87-.44,3.82-.62,5.5l-2.75-2.84Zm2.31,4.7h0l-4.35,3.55-3.28-3.55h7.63Zm-5.24,4.26h0l-3.99,3.2c.18-2.13.53-4.35.71-6.57l3.28,3.37Zm-3.81,4.44h0l4.52-3.55,3.02,3.19v.09l-.09.27h-7.45Zm5.5-4.35h0l3.46-2.75c-.36,1.95-.62,3.82-.98,5.41l-2.48-2.66Zm10.12-135.74h0l2.22,1.77,2.04-1.77h-4.26Zm2.84,2.4h0l2.13,1.69-.09-3.55-2.04,1.86Zm1.15,1.95h0l-1.69-1.51-1.68,1.51h3.37Zm-2.4-2.04h0l-1.95-1.69v3.46l1.95-1.77Zm-1.95,3.82h0l2.92,2.93,2.49-2.84v-.09h-5.41Zm3.55,3.64h0l1.95,2.13-.09-4.17-1.86,2.04Zm2.04,3.37h0l-2.57-2.75-2.75,2.93h5.32v-.18Zm-3.28-3.46h0l-2.3-2.4v4.97l2.3-2.57Zm-2.13,5.32h0l2.93,2.93,2.39-2.93h-5.32Zm3.55,3.55h0l2.13,2.13-.09-4.44-2.04,2.31Zm2.22,3.37h0l-2.75-2.66-2.57,3.11h5.32v-.45Zm-3.46-3.37h0l-2.48-2.48v5.59l2.48-3.1Zm-2.48,5.5h0l3.19,3.02,2.75-3.02h-5.94Zm3.9,3.73h0l2.3,2.13-.18-4.52-2.13,2.4Zm2.3,3.46h0l-2.92-2.84-2.48,2.84h5.41Zm-3.64-3.46h0l-2.57-2.48v5.41l2.57-2.93Zm1.33,8.96h0l2.66,2.31-.18-4.88-2.48,2.57Zm2.75,3.46h0l-3.37-2.84-2.93,2.93h6.3v-.09Zm-4.09-3.46h0l-2.57-2.22v4.79l2.57-2.57Zm-2.39,5.24h0l3.46,2.93,2.93-2.93h-6.39Zm4.17,3.55h0l2.66,2.31-.27-4.7-2.4,2.4Zm2.66,3.46h0l-3.28-2.84-3.02,3.19h6.39l-.09-.35Zm-3.99-3.46h0l-2.93-2.48v5.41l2.93-2.93Zm-2.84,5.41h0l3.64,3.11,3.1-3.11h-6.74Zm4.44,3.73h0l2.84,2.48-.27-5.15-2.57,2.66Zm2.84,3.55h0l-3.55-2.93-2.93,2.93h6.48Zm-4.26-3.55h0l-3.02-2.66v3.1l.09,1.42v1.07l2.93-2.93Zm-2.31,5.23h0l3.02,2.84,2.84-2.84h-5.86Zm3.9,3.55h0l3.11,2.75-.27-5.5-2.84,2.75Zm2.84,3.82h0l-3.46-3.19-3.28,3.19h6.74Zm-4.35-3.9h0l-3.02-2.66.09,1.77v2.31l.09,1.33,2.84-2.75Zm-1.95,5.59h0l3.11,2.57,2.57-2.57h-5.68Zm3.99,3.46h0l3.02,2.48-.27-5.33-2.75,2.84Zm2.84,3.81h0l-3.55-3.11-3.1,3.11h6.65Zm-4.52-3.81h0l-3.19-2.66.18,1.33.09,4.26,2.93-2.93Zm-2.48,5.5h0l3.19,2.84,2.84-2.84h-6.03Zm4.17,3.54h0l3.64,3.2-.44-6.39-3.19,3.19Zm2.57,3.73h0l-3.28-2.84-2.84,2.84h6.12Zm-4.26-3.73h0l-2.84-2.31v.62l.09.44v2.31l.09,1.68,2.66-2.75Zm-1.69,5.41h0l3.02,2.57,2.66-2.57h-5.68Zm3.99,3.46h0l3.64,3.02-.36-6.3-3.28,3.28Zm2.84,3.81h0l-3.55-3.02-3.11,3.02h6.66Zm-4.52-3.81h0l-3.11-2.66.09,1.15v.71l.09,3.73,2.93-2.93Zm-1.78,5.5h0l3.46,2.75,2.48-2.75h-5.95Zm4.44,3.46h0l3.2,2.75-.45-5.77-2.75,3.02Zm2.75,3.82h0l-3.64-2.93-2.84,2.93h6.47Zm-4.61-3.73h0l-3.55-2.93c.09,2.22.27,4.35.35,6.39l3.19-3.46Zm-2.31,5.5h0l3.37,2.57,2.57-2.57h-5.94Zm4.35,3.37h0l3.9,3.11c-.27-2.22-.44-4.26-.53-6.48h-.09l-3.28,3.37Zm2.93,3.81h0l-3.82-3.02-2.75,3.02h6.56Zm-4.7-3.73h0l-3.28-2.66c.09,1.95.27,3.9.36,5.77l2.93-3.11Zm-1.06,5.41h0l2.93,2.39,2.22-2.39h-5.14Zm3.9,3.19h0l3.55,2.84c-.18-2.04-.44-3.99-.53-6.03h-.09l-2.93,3.19Zm3.37,4.17h0l-4.26-3.37-3.11,3.37h7.36Zm-5.15-4.08h0l-3.81-3.19c.09,2.31.35,4.53.53,6.65l3.28-3.46Zm-2.3,5.77h0l3.73,3.02,2.93-3.02h-6.65Zm4.7,3.73h0l3.9,3.19c-.27-2.13-.44-4.35-.71-6.48l-3.19,3.28Zm1.95,3.19h0l-2.66-2.3-2.22,2.3h4.88Zm-3.64-3.02h0l-3.64-2.93c.18,2.04.35,4.08.71,5.94l2.93-3.02Zm-2.4,4.7h0l4.35,3.55,3.28-3.55h-7.63Zm5.32,4.26h0l3.64,2.93c-.18-1.95-.53-3.99-.71-6.03l-2.93,3.11Zm3.64,4.44h0l-4.44-3.55-3.28,3.46.09.09h7.63Zm-5.41-4.35h0l-3.64-3.02c.27,2.22.62,4.17.97,5.86l2.66-2.84Zm-29.28,29.28h9.94l-4.17-3.55-5.77,3.55Zm10.11-7.99h0l-4.35,2.75-3.11-2.75h7.45Zm-3.28,3.73h0l5.77-3.73h.8l-1.06,7.98h-.35l-5.15-4.26Zm27.77.35h0l-4.17,3.9h10.91l-6.74-3.9Zm-4.53-4.08h0l4.44,2.57,2.75-2.57h-7.19Zm3.37,3.46h0l-6.21-3.46,1.33,7.98,4.88-4.52Zm-38.24,18.54h13.75l-5.5-5.41-8.25,5.41Zm15.44-12.33h0l-7.19,4.7-4.7-4.7h11.89Zm-5.76,6.03h0l6.92-4.43-1.6,9.85-5.32-5.41Zm32.65.71h0l-5.59,5.59h14.72l-9.13-5.59Zm-7.28-6.74h0l7.28,4.52,4.52-4.52h-11.8Zm5.94,5.85h0l-7.27-4.52,1.51,9.49.09.71,5.68-5.68Zm4.53,15.53h0l-5.86,5.77h15.35l-9.49-5.77Zm-8.52-7.36h0l8.43,5.06,5.23-5.06h-13.66Zm6.92,6.57h0l-7.89-4.79,1.68,10.73,6.21-5.94Zm-49.15,6.57h15.53l-6.03-5.77-9.49,5.77Zm18.01-13.13h0l-8.34,5.06-5.32-5.06h13.66Zm-6.92,6.57h0l8.52-5.06-1.77,11.45-6.74-6.39Zm35.13,23.51h0v2.75c.62.27,1.25.53,1.78.71l-1.78-3.46Zm-.71,2.48h0v-3.9l-1.15-2.22v5.68l1.15.44Zm-1.95-.62h0v-6.92l-.71-1.42h-.44v7.9l1.15.44Zm-1.95-.71h0v-7.63h-1.07v7.36l1.07.27Zm-1.86-.35h0v-7.27h-1.15v6.92l1.15.35Zm-1.95-.44h0v-6.83h-1.16v6.66l1.16.18Zm-1.86-.35h0v-6.48h-1.15v6.3l1.15.18Zm-1.86-.27h0v-6.21h-1.16v6.12l1.16.09Zm-1.86-.09h0v-6.12h-1.15v6.03l1.15.09Zm-1.95-.09h0v-6.03h-1.15v6.03h1.15Zm-1.95,0h0v-6.03h-1.07v6.03h1.07Zm-1.86,0h0v-6.03h-1.15v6.12l1.15-.09Zm-1.95.17h0v-6.21h-1.15v6.3l1.15-.09Zm-1.86.18h0v-6.39h-1.15v6.48l1.15-.09Zm-1.86.35h0v-6.74h-1.15v6.92l1.15-.18Zm-1.87.27h0v-7.01h-1.15v7.36l1.15-.35Zm-1.95.53h0v-7.54h-.8l-.35.62v7.27l1.15-.35Zm-1.95.53h0v-5.95l-1.07,2.22v4.08l1.07-.35Zm57.4,41.17h0l4.61-5.85-9.94-4.44,5.33,10.29Zm6.3-7.81h0l4.52-5.59h-16.94l12.42,5.59Zm6.21-3.9h0l-3.9,4.97,8.43,3.64-4.52-8.61Zm-5.59,6.92h0l-5.41,6.83h18.1l-.8-1.6-11.89-5.23Zm-15.26-11.27h0l5.14-3.64-8.52-3.02,3.37,6.65Zm7.18-4.97h0l4.79-3.28h-13.66l8.87,3.28Zm7.36-2.93h0l-5.23,3.64,8.7,3.1-3.46-6.74Zm-7.36,5.06h0l-5.41,3.81h15.88l-10.47-3.81Zm-10.56-7.1h14.99l-9.85-3.55-5.14,3.55Zm-2.13-.71h0l5.14-3.55-8.6-3.1,3.46,6.66Zm7.27-5.06h0l5.06-3.46h-14.73l9.67,3.46Zm7.18-2.75h0l-5.05,3.55,8.52,3.11-3.46-6.66Zm-19.7-2.31h18.54l-1.69-3.28h-18.54l1.68,3.28Zm-66.89,37h0l-4.7-6.03,10.2-4.44-5.5,10.47Zm-6.39-7.99h0l-4.43-5.59h16.95l-12.51,5.59Zm-6.03-3.81h0l3.73,4.88-8.08,3.55,4.35-8.43Zm5.41,6.83h0l5.5,6.83h-17.92l.8-1.68,11.62-5.15Zm14.1-8.6h0l1.33-2.57-5.24-3.72,8.7-3.11-3.46,6.83-1.33,2.57Zm-6.03-7.63h0l-4.7-3.28h13.66l-8.96,3.28Zm-7.1-2.84h0l5.06,3.55-8.52,3.1,3.46-6.65Zm7.1,4.97h0l5.5,3.81h-15.97l10.47-3.81Zm10.65-7.1h-15l9.85-3.55,5.15,3.55Zm71.15-15.79h-18.54l-3.82-7.45h18.54l3.81,7.45Zm-69.03,15.17h0l-5.23-3.64,8.87-3.1-3.64,6.74Zm-7.27-5.15h0l-5.05-3.46h14.64l-9.58,3.46Zm-7.18-2.66h0l5.06,3.46-8.43,3.02,3.37-6.48Zm19.87-2.4h-18.63l1.69-3.28h18.63l-1.69,3.28Zm2.49-4.97h-18.55l3.9-7.45h18.54l-3.9,7.45Zm16.5-49.86h11.62l4.88,31.94h-21.56l2.48-16.33,2.57-15.61Zm11.27-1.69h-11.09l.53-3.19h10.03l.53,3.19Zm-22.8,52.79h0v-2.93l-1.95,3.73c.62-.36,1.24-.53,1.95-.8h0Zm38.77,8.7h0l-.97-1.86c-6.48-3.82-13.93-5.94-22-5.94-7.36,0-14.37,1.86-20.41,5.14l-.89,1.78c6.3-3.55,13.57-5.68,21.29-5.68,8.51,0,16.24,2.4,22.98,6.57h0Z"/>
      <path class="cls-3" d="m346.1,447.43v6.3h.8v1.16h-.27c22.62,14.28,9.94,18.72,12.6,21.56-4.35-.09-8.69-.09-13.13,0h-13.31c1.69-3.11-11.44-7.19,11.98-21.56h-.27v-1.16h.8v-5.94h-.53c-.98,0-1.86-.62-2.22-1.6.44.45.98.62,1.6.62,1.33,0,2.48-1.06,2.48-2.4,0-.27-.09-.62-.18-.8.53.44.8,1.06.8,1.69,0,.89-.44,1.68-1.15,2.13h0Zm-44.18,34.51c.27-.53-1.86-1.16,2.04-3.55,3.73,2.39,1.69,3.11,2.13,3.55h-4.17Zm-.18,4.08h4.26v-2.31h-4.26v2.31Zm.8-.53h.8v-1.33h-.8v1.33Zm1.95,0h.71v-1.33h-.71v1.33Zm-.97,0h.71v-1.33h-.71v1.33Zm-2.31-2.04h5.41v-.44h-5.41v.44Zm0-.8h5.41v-.45h-5.41v.45Zm0,4.08h5.41v-.35h-5.41v.35Zm0,.53h5.41v-.35h-5.41v.35Zm.45.09h4.43v11h-4.43v-11Zm4.43,11.71v9.49h-4.43v-9.49h4.43Zm0,10.2v5.86h5.23v-27.15l8.78-1.78v28.93h.35v-33.72h1.15v-.36h10.29v-3.11h27.68v2.57h0v.53h10.64v.36h.89v33.72h.53v-29.37l8.52,2.4v26.97h5.77v-5.86h4.35v5.86h7.9v-9.49h7.1v9.49h9.05v2.39h-136.98v-2.39h9.32v-9.49h7.19v9.49h7.81v-5.86h4.43Zm-12.6-48.09c-.44-.8,3.02-1.77-3.28-5.59-6.12,3.72-2.75,4.88-3.46,5.59h6.74Zm.18,6.66h-6.83v-3.73h6.83v3.73Zm-1.24-.8h-1.15v-2.13h1.15v2.13Zm-3.19,0h-1.15v-2.13h1.15v2.13Zm1.6,0h-1.15v-2.13h1.15v2.13Zm3.9-3.11h-8.87v-.97h8.87v.97Zm0-1.42h-8.87v-.89h8.87v.89Zm0,6.48h-8.87v-.89h8.87v.89Zm0,.89h-8.87v-.62h8.87v.62Zm119.6,53.23h-136.98v-4.79h136.98v4.79Zm-120.48-53.05h-7.19v17.83h7.19v-17.83Zm104.6-8.88c.53-.8-3.02-1.77,3.37-5.59,6.12,3.72,2.75,4.88,3.46,5.59h-6.83Zm6.74,6.66v-3.73h.98v-1.15h-8.87v1.15h.98v3.73h-.98v2.22h.89v17.83h7.1v-17.83h.89v-2.22h-.98Zm-5.59-.8h1.15v-2.13h-1.15v2.13Zm3.11,0h1.24v-2.13h-1.24v2.13Zm-1.51,0h1.16v-2.13h-1.16v2.13Zm-3.9-4.26h8.87v-1.15h-8.87v1.15Zm7.99,26.26v15.35h-7.1v-15.35h7.1Zm-71.69,26.09h24.4v-32.21h-24.4v32.21Zm56.51-33.18c-.27-.53,1.86-1.16-2.04-3.55-3.82,2.39-1.69,3.11-2.13,3.55h4.17Zm.18,4.08h-4.26v-2.31h4.26v2.31Zm-.89-.53h-.71v-1.33h.71v1.33Zm-1.86,0h-.71v-1.33h.71v1.33Zm.89,0h-.71v-1.33h.71v1.33Zm2.39-1.95h-5.41v-.53h5.41v.53Zm0-.89h-5.41v-.45h5.41v.45Zm0,4.08h-5.41v-.44h5.41v.44Zm0,.62h-.53v11h-4.35v-11h-.53v-.44h5.41v.44Zm-4.88,11.71v9.49h4.35v-9.49h-4.35Zm-99.28-10.03v15.35h7.19v-15.35h-7.19Zm31.05,16.86v6.57l-4.52.09v-6.12c0-1.15,2.13-3.02,2.22-3.02.09,0,2.31,1.33,2.31,2.49h0Zm0-11v6.48l-4.52.53v-6.48c0-1.24,2.13-3.1,2.22-3.1.09-.09,2.31,1.24,2.31,2.57h0Zm56.52,11v6.57l4.52.09v-6.12c0-1.15-2.22-3.02-2.3-3.02-.09,0-2.22,1.33-2.22,2.49h0Zm0-11v6.48l4.52.53v-6.48c0-1.24-2.22-3.1-2.3-3.1-.09-.09-2.22,1.24-2.22,2.57h0Zm-13.31-14.37c.54-.98-3.73-2.13,4.08-6.83h-.35v-.35h.27v-1.6h-.27c-.27,0-.62-.27-.71-.53.09.09.36.18.54.18.44,0,.8-.35.8-.71,0-.09,0-.17-.09-.26.18.09.27.26.27.53s-.09.44-.27.62v1.77h.18v.35h-.36c7.45,4.53,3.55,5.95,4.26,6.83h-8.34Zm-12.86,15.79v5.06h5.15v-5.23c0-3.02-7.01-7.1-7.36-7.1s-7.36,4.08-7.36,7.1v5.23h5.06v-5.06c0-.89,2.13-2.13,2.31-2.13.09,0,2.22,1.24,2.22,2.13h0Zm0,11.27v4.97h-4.52v-4.97c0-.98,2.13-2.22,2.31-2.22.09,0,2.22,1.24,2.22,2.22h0Zm5.15-4.43h-14.73v9.4h-2.13v-26.97h18.9v26.97h-2.04v-9.4Zm-28.57-5.68h1.77v3.37h-1.77v-3.37Zm0,11.71h1.77v3.37h-1.77v-3.37Zm40.72,0h1.77v3.37h-1.77v-3.37Zm0-11.71h1.77v3.37h-1.77v-3.37Zm-42.32-14.28h1.6v2.4h-1.6v-2.4Zm44.36,0h1.68v2.4h-1.68v-2.4Zm-2.66,0h1.6v2.4h-1.6v-2.4Zm-2.75,0h1.6v2.4h-1.6v-2.4Zm-33.45,0h1.6v2.4h-1.6v-2.4Zm-2.75,0h1.6v2.4h-1.6v-2.4Zm37.18,19.7h2.48c-.53.27-1.06.71-1.33.89-.53.44-1.24,1.24-1.24,2.04v7.1h6.83v-7.1c0-.8-.8-1.6-1.33-2.04-.18-.18-.8-.62-1.33-.89h2.66v-.71h-6.74v.71Zm-40.81-12.07h3.02c-.53.27-1.51,1.07-1.77,1.24-.53.44-1.33,1.24-1.33,2.04v7.1h6.83v-7.1c0-.8-.8-1.6-1.33-2.04-.27-.27-1.15-.98-1.77-1.24h3.11v-.71h-6.74v.71h0Zm0,12.07h2.57c-.53.27-1.15.71-1.33.89-.53.44-1.33,1.24-1.33,2.04v7.1h6.83v-7.1c0-.8-.71-1.6-1.33-2.04-.18-.18-.71-.62-1.24-.89h2.57v-.71h-6.74v.71h0Zm40.64-12.07h3.19c-.62.27-1.6.98-1.78,1.24-.62.44-1.33,1.24-1.33,2.04v7.1h6.83v-7.1c0-.8-.8-1.6-1.33-2.04-.27-.18-1.24-.98-1.77-1.24h2.84v-.71h-6.65v.71Zm-35.85-20.41c.18.09.27.26.27.53s-.09.44-.27.62v1.77h.27v.35h-.8v-.35h.27v-1.6h-.27c-.27,0-.53-.27-.71-.53.18.09.36.18.53.18.44,0,.8-.35.8-.71,0-.09,0-.17-.09-.26h0Zm-.18,3.28c7.45,4.53,3.64,5.95,4.26,6.83h-8.34c.62-.97-3.73-2.13,4.08-6.83h0Z"/>
      <path class="cls-3" d="m444.31,384.35h-1.59v-11.36l-.18.18-.27-.18v3.64l-.35-.44-.35.62-.36.62-.44-.62-.36-.62-.44.62-.36.62-.44-.62-.36-.62-.44.62-.36.62-.35-.62-.44-.62-.36.62-.44.62-.35-.62-.44-.62-.35.62-.36.62-.45-.62-.35-.62-.44.62-.36.62-.44-.62-.35-.62-.44.62-.35.62-.36-.62-.44-.62-.35.62-.44.62-.35-.62-.44-.62-.35.62-.35.62-.45-.62-.36-.62-.44.62-.35.62-.44-.62-.35-.62-.45.62-.35.62-.35-.62-.45-.62-.35.62-.44.62-.35-.62-.44-.62-.35.62-.36.62-.44-.62-.35-.62-.45.62-.36.62-.44-.62-.36-.62-.44.62-.36.62-.35-.62-.44-.62-.36.62-.44.62-.35-.62-.44-.62-.36.62-.35.62-.44-.62-.35-.62-.36.53v-3.73l-.27.18-.27-.18v11.36h-1.51v-4.43l-.18.27-.27-.27v36.82h32.38v-36.82l-.27.27-.18-.27v4.43h-.02Zm.98,138.76h-34.34v-20.49h34.34v20.49Zm-3.37-22.09v-19.16h-1.42v19.16h-1.07v-19.16h-1.51v19.16h-1.06v-19.16h-1.42v19.16h-1.15v-19.16h-1.42v19.16h-1.15v-19.16h-1.42v19.16h-1.15v-19.16h-1.42v19.16h-1.15v-19.16h-1.42v19.16h-1.07v-19.16h-1.51v19.16h-1.06v-19.16h-1.42v19.16h-1.15v-19.16h-1.42v19.16h-1.15v-19.16h-1.42v19.16h-1.15v-39.66h29.28v39.66h-1.15Zm-1.42-20.23h1.42v-18.54h-1.42v18.54Zm-25.55,0h1.42v-18.54h-1.42v18.54Zm2.57,0h1.42v-18.54h-1.42v18.54Zm2.57,0h1.42v-18.54h-1.42v18.54Zm2.48,0h1.51v-18.54h-1.51v18.54Zm2.57,0h1.42v-18.54h-1.42v18.54Zm2.57,0h1.42v-18.54h-1.42v18.54Zm2.57,0h1.42v-18.54h-1.42v18.54Zm2.57,0h1.42v-18.54h-1.42v18.54Zm2.57,0h1.42v-18.54h-1.42v18.54Zm2.48,0h1.51v-18.54h-1.51v18.54Zm-22.27-108.77l-1.07-.89-.98.89.98,1.06,1.07-1.06Zm27.86,0l-.98-.89-.98.89.98,1.06.98-1.06Zm1.95,6.92l-.98-.89-.89.89.89,1.06.98-1.06Zm-31.94,0l-.89-.89-.98.89.98,1.06.89-1.06Zm.8-7.72v-.62h.53v.62l-.27-.27-.27.27Zm27.95,0v-.62h.45v.62l-.18-.27-.27.27Zm-29.9,6.92v-.71h.44v.62l-.18-.18-.27.27Zm31.94-.09v-.62h.44v.71l-.27-.27-.18.18Zm-22.71-11.98l-4.26,10.56.09.09.09.18.8-1.15.62.98.18.18.18-.18.62-.98.8,1.24.18-.27.62-1.06.53,1.06.27.27.71-1.24.71.98.09.18.18-.18.62-.98.62.98.18.18.18-.18.62-.98.62.98.18.27.18-.27.62-1.06.54,1.06.27.27.09-.27.62-.98.71.98.09.18.8-1.15.62.98.18.18.18-.18.62-.98.8,1.24.18-.27.62-1.06.62,1.06.18.27.71-1.24.71.98.09.18.8-1.15.62.98.18.18.18-.18.62-.98.8,1.15.09-.18.09-.09-4.26-10.56h-13.93Zm1.42,7.18l-.89-1.51-.27-.35-1.15,1.86.36.18.8-1.33.71,1.33.44-.18Zm6.66-3.55l-.89-1.6-.18-.35-1.15,1.95.35.18.8-1.33.71,1.33.36-.18Zm4.43,0l-.98-1.6-.18-.35-1.15,1.95.36.18.8-1.33.71,1.33.44-.18Zm2.22,3.55l-.98-1.51-.18-.35-1.07,1.86.27.18.8-1.33.8,1.33.36-.18Zm-4.52,0l-.8-1.51-.27-.35-1.15,1.86.35.18.8-1.33.8,1.33.26-.18Zm-4.44,0l-.8-1.51-.27-.35-1.15,1.86.36.18.8-1.33.71,1.33.35-.18Zm-1.68-3.55l-.8-1.6-.27-.35-1.15,1.95.35.18.8-1.33.71,1.33.36-.18Zm-6.83,9.32h-3.19v4.35h3.19v-4.35Zm22.18,0h-3.11v4.35h3.11v-4.35Zm-4.35,0h-3.28v4.35h3.28v-4.35Zm-4.43,0h-3.28v4.35h3.28v-4.35Zm-4.44,0h-3.28v4.35h3.28v-4.35Zm-4.52,0h-3.19v4.35h3.19v-4.35Zm6.56-39.84h-2.57v-1.86h2.57v1.86Zm-8.34,14.29l-.98-.98-.98.98.98.98.98-.98Zm16.06,0l-.98-.98-.98.98.98.98.98-.98Zm-1.51,3.81l-.35.71-.36.71h-.09l-.27-.71-.44-.71-.44.71-.27.71h0l-.35-.71-.44-.71-.35.71-.35.71h0l-.36-.71-.35-.71-.45.71-.35.71h0l-.35-.71-.35-.71-.44.71-.27.71h-.09l-.35-.71-.35-.71-.45.71-.27.71h-.09l-.35-.71-.36-.71-.44.71-.27.71h-.09l-.36-.71-.35-.71-.44.71-.27.71h-.08l-.36-.71-.44-.71-.36.71-.35.71h0l-.27-.71-.44-.71-.44.71-.27.71h-.09l-.27-.71-.45-.71-.27.44v-3.11l-.27.18-.27-.18v4.08h0v6.83h16.59v-6.83h0v-4.08l-.27.18-.27-.18v3.11l-.27-.44Zm-7.45-21.03c0,.27-.09.53-.09.8h.09v-.8h0Zm-.35,3.2c-.98,6.12-3.82,11.53-5.77,17.3v-.09l.71,1.24.09.18.71-1.42.71,1.24.09.18.08-.18.71-1.24.71,1.42.09-.18.71-1.24.71,1.42.09-.18.71-1.24.62,1.24.09.18.09-.18.71-1.24.71,1.42.09-.18.71-1.24.71,1.42.09-.18.71-1.24.53,1.24.18.18.09-.18.62-1.24c.18-.27-5.41-14.73-5.77-17.21h-.53Zm1.42,8.34l-.89-1.42-.18-.44-1.15,1.86.35.27.8-1.33.71,1.33.36-.27Zm-3.37,7.63l-.8-1.6-.27-.35-1.15,1.95.35.18.8-1.42.71,1.42.36-.18Zm3.37,0l-.89-1.6-.18-.35-1.15,1.95.35.18.8-1.42.71,1.42.36-.18Zm3.37,0l-.89-1.6-.27-.35-1.15,1.95.44.18.71-1.42.8,1.42.35-.18Zm-5.32-3.64l-.89-1.6-.27-.35-1.06,1.95.35.18.71-1.42.8,1.42.36-.18Zm3.91,0l-.89-1.6-.18-.35-1.15,1.95.27.18.89-1.42.71,1.42.36-.18Zm-11.36.62v-.62h.53v.62l-.27-.27-.27.27Zm16.06,0v-.62h.53v.62l-.27-.27-.26.27Zm-12.69,7.63h-2.48v4.44h2.48v-4.44Zm12.33,0h-2.48v4.44h2.48v-4.44Zm-3.11,0h-2.48v4.44h2.48v-4.44Zm-3.02,0h-2.48v4.44h2.48v-4.44Zm-3.1,0h-2.48v4.44h2.48v-4.44Zm13.93,99.1h1.42v-20.23h-1.42v20.23Zm-25.64,0h1.42v-20.23h-1.42v20.23Zm2.57,0h1.42v-20.23h-1.42v20.23Zm2.57,0h1.42v-20.23h-1.42v20.23Zm2.57,0h1.42v-20.23h-1.42v20.23Zm2.57,0h1.42v-20.23h-1.42v20.23Zm2.48,0h1.51v-20.23h-1.51v20.23Zm2.58,0h1.42v-20.23h-1.42v20.23Zm2.57,0h1.42v-20.23h-1.42v20.23Zm2.57,0h1.42v-20.23h-1.42v20.23Zm2.57,0h1.42v-20.23h-1.42v20.23Zm2.57-21.3h1.42v-18.63h-1.42v18.63Zm-25.64,0h1.42v-18.63h-1.42v18.63Zm2.57,0h1.42v-18.63h-1.42v18.63Zm2.57,0h1.42v-18.63h-1.42v18.63Zm2.57,0h1.42v-18.63h-1.42v18.63Zm2.57,0h1.42v-18.63h-1.42v18.63Zm2.48,0h1.51v-18.63h-1.51v18.63Zm2.58,0h1.42v-18.63h-1.42v18.63Zm2.57,0h1.42v-18.63h-1.42v18.63Zm2.57,0h1.42v-18.63h-1.42v18.63Zm2.57,0h1.42v-18.63h-1.42v18.63Zm5.06-19.43h-29.19v41.52h29.19v-41.52Zm-25.46-4.44h-1.68v1.69h1.68v-1.69Zm23.33,0h-1.68v1.69h1.68v-1.69Zm-2.13,0h-1.69v1.69h1.69v-1.69Zm-2.13,0h-1.68v1.69h1.68v-1.69Zm-2.13,0h-1.68v1.69h1.68v-1.69Zm-2.13,0h-1.69v1.69h1.69v-1.69Zm-2.13,0h-1.68v1.69h1.68v-1.69Zm-2.13,0h-1.69v1.69h1.69v-1.69Zm-2.13,0h-1.69v1.69h1.69v-1.69Zm-2.13,0h-1.6v1.69h1.6v-1.69h0Zm-2.04,0h-1.69v1.69h1.69v-1.69Zm-2.13,0h-1.69v1.69h1.69v-1.69Zm8.78-12.42c-.18,0-.35-.09-.53-.09l-.62.62c-.09.35-.09.62-.27.8-.09.09-.27.09-.44,0q-.18-.27-.44-.53c-.18-.09-.18-.27,0-.44.18-.18.44-.27.71-.27l.71-.62c-.18-.09-.18-.36-.18-.53v-.27l-6.39-6.83v-.18h.18c0-.09.09-.09.09,0l6.74,6.3c.09-.09.27-.09.45-.09s.44.09.62.18l1.06-.98c-.09,0-.18-.09-.18-.18-.18-.09-.18-.36,0-.44.18-.18.62-.27,1.06-.27l.18-.18v-.45h.62v.53h-.35l-.27.27c0,.44,0,.89-.18,1.07-.18.09-.44.09-.53,0l-.09-.09-1.06,1.06c.09.18.18.35.18.53s-.09.27-.09.35c.27.44.8.8,1.33.98,0,0,.09,0,.09.09s0,.18-.09.18c-.18,0-.18.09-.18.18-.09,0-.09.09-.09.18s-.09.18-.09.18c-.18,0-.27,0-.27.09-.09,0-.18.09-.18.18h-.09c-.09.09-.09,0-.18,0-.17-.62-.53-.98-1.06-1.33,0,0-.09,0-.18,0h0Zm-.27-10.29h-.62l-.09-1.15h-.09.8v1.15Zm-1.16.09c-.27.09-.53.09-.8.18l-.27-1.15h0c.27-.09.62-.18.98-.18h0l.09,1.15Zm-1.24.26c-.18.09-.35.18-.62.18l-.45-1.06c.27-.09.53-.18.8-.27h0l.26,1.15Zm-.97.36c-.27.18-.54.27-.8.36l-.62-.98c.27-.18.62-.35.98-.44l.45,1.07Zm-1.25.62c-.18.17-.35.27-.53.35l-.71-.98c.27-.09.44-.27.71-.45l.53,1.07Zm-.88.62c-.18.18-.27.27-.45.36l.18.18c.09-.09.27-.27.35-.35h.09l.09-.09c.27-.17.44-.35.71-.53h.09l1.86,3.28c-.18.09-.35.18-.44.27l.18.18c.8-.71,1.86-1.07,3.11-1.07s2.48.53,3.37,1.33h.36c-.27-.27-.53-.53-.89-.71l1.77-3.28h.09c.36.27.62.44.98.71l.09.09h0c.18.18.35.35.62.53.18.27.44.53.71.8v.09l.09.09c.18.27.35.45.44.71l-3.19,1.86c-.18-.27-.44-.62-.62-.89v.44c.71.8,1.24,2.04,1.24,3.28,0,1.42-.62,2.66-1.51,3.64-.98.89-2.22,1.51-3.55,1.51-1.42,0-2.66-.62-3.64-1.51-.98-.98-1.51-2.21-1.51-3.64,0-1.15.35-2.22,1.06-3.02l-.18-.18c-.09.09-.18.27-.26.35l-3.2-1.86c.18-.36.44-.71.71-.98v-.09h0c.09,0,.09-.09.18-.17l-.18-.18c-.09.09-.09.18-.18.27l-.98-.8c.18-.09.27-.18.36-.35v-.44l.27-.09c.09-.18.27-.18.45-.18.18-.17.35-.26.62-.44h0l.71.89Zm-1.51,1.6h-.09l-.8-.71h0l.89.62v.09h0Zm-.18.18c-.18.18-.35.45-.44.71l-.53-.35-.53-.27h0c.18-.27.35-.62.53-.8h.09l.88.71Zm-.71,1.07c-.09.18-.18.35-.27.62l-1.15-.53c.09-.18.27-.44.35-.62h0l1.06.53Zm-.53,1.06c-.09.27-.18.53-.27.8l-1.07-.35h-.09c.09-.36.27-.62.35-.98h0l1.07.53Zm-.26.98h0l-1.07-.27h0l1.07.27Zm-.09.27c-.09.18-.09.36-.18.62l-1.15-.18c.09-.27.09-.53.18-.8v.09l1.15.27Zm-.18.8h0l-1.06-.09h0v-.09l1.06.18Zm0,.27c-.09.26-.09.53-.09.8h-1.15c0-.35,0-.62.09-.98l1.15.18Zm-.09,1.33c0,.18,0,.44.09.62l-1.24.09h0v-.71h1.15Zm.09,1.06c.09.27.09.62.18.89l-1.15.27h0c-.09-.35-.18-.62-.18-.98h0l1.15-.18Zm.27,1.07h0l-1.07.27h0l1.07-.27Zm0,.26c.09.18.18.36.27.53l-1.15.44v.09c-.09-.27-.18-.53-.27-.8h.09l1.06-.27Zm.36.8h0l-.98.44h0v-.09l.98-.35Zm.09.18c.09.27.18.53.35.8l-1.06.62h0c-.18-.27-.27-.62-.44-.89l.09-.09,1.06-.44Zm.62,1.24c.09.18.18.35.36.44l-1.06.71h0c-.09-.18-.27-.36-.35-.62h0l1.06-.53Zm.62.8c.18.27.36.45.54.71l-.8.89h-.09c-.18-.27-.44-.53-.62-.8h0l.98-.8Zm.89,1.06c.17.09.27.27.44.35l-.71.98h-.09c-.18-.18-.35-.36-.54-.53h0l.89-.8Zm.79.71c.27.18.44.27.71.44l-.53,1.07h-.09c-.27-.18-.53-.35-.8-.62h0l.71-.89Zm1.15.71c.18.09.35.18.53.27l-.44,1.06c-.27-.09-.53-.18-.71-.35h0l.62-.98Zm.98.44c.27.09.53.18.8.27l-.27,1.15h0c-.36-.09-.71-.18-.98-.27l.45-1.15Zm.98.35h0l-.18.98h-.09l.27-.98Zm.27.09c.18,0,.44.09.62.09l-.18,1.15h0c-.27,0-.53-.09-.71-.09h0l.27-1.15Zm.8.18h.09l-.18.98h0l.09-.98Zm.27,0c.27,0,.62.09.89.09v1.15c-.36,0-.71,0-1.07-.09h0l.18-1.15Zm1.33.09c.18,0,.44,0,.62-.09l.18,1.15v.09h-.8v-1.15Zm1.15-.09c.27-.09.53-.09.8-.18l.27,1.15h0c-.27.09-.62.09-.98.18h0l-.09-1.15Zm1.07-.27h0l.27.98h-.09l-.18-.98h0Zm.18-.09c.18,0,.36-.09.62-.18l.44,1.07v.09c-.27.09-.44.18-.71.18h0l-.36-1.15Zm.8-.27h.09l.35.98h0l-.44-.98Zm.27-.09c.27-.09.53-.27.71-.35l.62.98v.09c-.27.09-.62.27-.89.44v-.09l-.44-1.06Zm1.15-.62c.18-.09.36-.18.53-.35l.71.98c-.18.17-.44.27-.62.44h0l-.62-1.07Zm.71-.44h0l.62.8h0l-.62-.8Zm.18-.18c.27-.18.44-.35.62-.53l.89.8h0c-.27.27-.53.53-.8.71h0l-.71-.98Zm.98-.89c.17-.18.26-.36.35-.44l.98.71c-.09.18-.27.36-.44.53l-.89-.8Zm.71-.89c.18-.18.36-.44.44-.71l1.06.62c-.18.35-.35.62-.53.89h-.09l-.89-.8Zm.71-1.07c.09-.18.18-.36.27-.53l1.15.44c-.18.27-.27.45-.36.71h-.09l-.98-.62Zm.44-.98c.09-.27.27-.53.27-.8l1.16.27h.09c-.18.35-.27.71-.36.98l-1.15-.44Zm.44-1.24c0-.18.09-.44.09-.62l1.24.18c-.09.18-.09.44-.18.71h0l-1.15-.27Zm.18-.89h0l1.07.18h-.09l-.98-.18Zm0-.27c.09-.27.09-.53.09-.8h1.15c0,.35,0,.62-.09.98l-1.15-.18Zm.09-1.33c0-.17,0-.35-.09-.53l1.24-.18h0v.71h-1.15Zm-.09-.8h0v-.09l1.07-.09h0v.09l-1.07.09Zm0-.27c-.09-.27-.09-.53-.18-.8l1.15-.27v-.09c.09.35.18.71.18,1.07h0l-1.15.09Zm-.27-1.24c-.09-.27-.18-.44-.27-.62l1.15-.44h0c.09.27.18.44.18.71h0l-1.07.35Zm-.35-.89h0l.98-.44h0v.09l-.98.35Zm-.09-.18c-.09-.26-.18-.53-.36-.8l.98-.53h.09c.18.27.27.62.45.89l-1.16.44Zm-.62-1.15c-.09-.18-.18-.35-.27-.53l.89-.71c.18.18.35.44.44.62l-1.06.62Zm-.62-.98c-.18-.17-.36-.35-.53-.62l.89-.8c.18.27.44.53.62.71v.09l-.98.62Zm-.89-.88c-.09-.18-.27-.35-.45-.44l.71-.97c.18.18.44.35.62.53l-.89.89Zm-.62-.62h0l.71-.8h0l-.62.8h-.09Zm-.18-.09c-.27-.18-.44-.36-.71-.53l.62-.98c.27.18.53.36.8.54l-.71.98Zm-1.15-.71c-.18-.18-.36-.27-.53-.35l.44-1.07h0c.27.09.44.18.71.35l-.62,1.07Zm-.98-.53c-.27-.09-.53-.18-.8-.27l.36-1.15h0c.27.09.62.27.89.35h0l-.44,1.07Zm-1.24-.36c-.18-.09-.44-.09-.62-.18l.18-1.15c.27.09.53.09.71.18h0l-.27,1.15Zm-.8-.18h-.09l.18-1.06h0l-.09,1.06Zm-.26,0c-.27-.09-.62-.09-.89-.09v-1.15h1.06l-.17,1.24Zm-5.41,1.24c.27-.18.44-.27.71-.44h.09l.27-.09h0c.27-.09.44-.18.71-.27h.09l.18-.09h.18c.27-.09.53-.09.8-.18h.44v-.09h.62v3.73c-.8.09-1.6.27-2.22.62l-1.87-3.19Zm4.53-1.16c.27,0,.53,0,.8.09h.44c.27.09.44.09.62.18h.09l.27.09h.09c.26.09.53.18.8.27v.09h.09c.09,0,.18.09.27.09h0l.09.09h0c.18,0,.35.18.53.27l-1.86,3.19c-.71-.36-1.42-.53-2.22-.62v-3.73h0Zm7.72,4.79c.18.27.27.53.35.8h0l.09.09c0,.09,0,.18.09.18v.09h0c.09.27.18.62.27.98h0c.18.62.27,1.24.27,1.95h-3.73c0-.8-.27-1.6-.53-2.22l3.19-1.86Zm1.06,4.53c0,.27,0,.53-.09.8h0c0,.36-.09.71-.18,1.07h0c-.18.8-.45,1.51-.8,2.21l-3.28-1.86c.36-.71.53-1.42.62-2.22h3.73Zm-1.33,4.44c-.09.27-.27.53-.44.8l-.18.18-.09.09h0c-.18.18-.26.36-.35.44l-.18.09-.09.18h0l-.18.09h.09c-.27.18-.45.36-.62.53h-.09v.09l-.09.09c-.27.18-.44.27-.71.44l-1.86-3.28c.27-.18.62-.44.89-.71.27-.27.53-.53.71-.89l3.19,1.86h0Zm-3.37,3.28c-.18.09-.44.27-.71.35v-.09l-.18.09-.09.09-.18.09h0c-.18,0-.36.09-.54.17h-.09c-.09,0-.27.09-.36.09h-.09c-.36.09-.62.18-.98.18h-.18c-.27.09-.44.09-.71.09v-3.73c.8-.09,1.51-.27,2.22-.62l1.86,3.28Zm-4.52,1.07c-.27,0-.54,0-.8-.09h-.45c-.27-.09-.44-.09-.62-.18h0c-.44-.09-.89-.27-1.33-.44h-.09c-.27-.09-.53-.27-.8-.35l1.86-3.28c.71.36,1.42.53,2.22.62v3.73h0Zm-4.53-1.33c-.18-.09-.44-.27-.71-.44h.09l-.09-.09-.27-.09v-.09h-.09c-.09-.18-.27-.27-.44-.44h.09l-.09-.09-.18-.18-.18-.09c-.18-.18-.36-.35-.53-.62h.09-.09l-.18-.27-.09-.09c-.09-.18-.18-.35-.27-.53h-.09l3.28-1.86c.26.35.44.62.8.89.27.27.53.53.89.8l-1.95,3.19h0Zm-3.19-3.37c-.18-.27-.27-.53-.36-.89h-.09c-.09-.27-.18-.62-.27-.89h0c-.09-.18-.09-.27-.09-.44h0c-.18-.62-.27-1.24-.27-1.86h3.73c0,.8.27,1.51.62,2.22l-3.28,1.86Zm-1.07-4.52c0-.26,0-.62.09-.89h0v-.44h0c.09-.18.09-.44.18-.62h0c0-.18,0-.27.09-.35v-.09h0c.09-.27.18-.53.27-.71h0l.09-.18v-.09c0-.09.09-.09.09-.18h0c.09-.17.18-.35.27-.53l3.28,1.86c-.35.71-.62,1.42-.62,2.22h-3.73Zm21.03-11.89h-11.98c6.57,0,11.98,5.41,11.98,12.07v-12.07Zm-9.41,2.04h.09l-.27,1.06.18-1.06Zm4.62,2.75h.09l-.71.8-.09-.09.71-.71Zm2.75,4.61h0l-1.07.27,1.07-.27Zm0,5.32h0l-1.07-.27h0l1.07.27Zm-2.66,4.61h0l-.09.09-.71-.8h.09l.71.71Zm-14.55.09h0l-.09-.09.71-.71h.09l-.71.8Zm4.53-17.39h.09l.18,1.06-.27-1.06Zm6.83.53h0l-.44.98.44-.98Zm4.17,3.28h0l-.89.71v-.09l.89-.62Zm1.24,10.29h0l-1.07-.44h0l1.07.44Zm-1.42,2.31h0l-.89-.62.89.62Zm-6.92,3.9h0l-.09-1.06.09,1.06Zm-5.24-.71h0l-.09-.09.44-.98-.35,1.06Zm-2.39-1.42h0v-.09l.71-.8-.71.89Zm-1.87-1.96h0l.89-.62-.89.62Zm-1.95-4.97h0l1.06-.09-1.06.09Zm.71-5.32h0l.98.44-.98-.44Zm3.37-4.17h0v-.09l.62.89v.09l-.62-.89Zm2.31-1.33h0l.45.98-.09.09-.36-1.07Zm2.66-.62h0l.09,1.06-.09-1.06Zm1.24-1.86h-12.07v12.07c0-6.65,5.41-12.07,12.07-12.07h0Zm-12.07,12.07v12.07h12.07c-6.65,0-12.07-5.41-12.07-12.07h0Zm12.07,12.07h11.98v-12.07c0,6.65-5.41,12.07-11.98,12.07h0Zm0-.62c-6.3,0-11.45-5.15-11.45-11.45s5.15-11.35,11.45-11.35,11.36,5.14,11.36,11.35c0,6.3-5.14,11.45-11.36,11.45h0Zm10.11-.71c-.53,0-.89-.35-.89-.98,0-.44.36-.8.89-.8.44,0,.89.35.89.8,0,.62-.44.98-.89.98h0Zm0-19.87c-.53,0-.89-.44-.89-.89,0-.53.36-.89.89-.89.44,0,.89.35.89.89,0,.44-.44.89-.89.89h0Zm-20.14,0c-.53,0-.89-.44-.89-.89,0-.53.36-.89.89-.89s.89.35.89.89c0,.44-.36.89-.89.89h0Zm0,19.87c-.53,0-.89-.35-.89-.98,0-.44.36-.8.89-.8s.89.35.89.8c0,.62-.36.98-.89.98h0Zm22.35-23.16v24.85h-24.75v-24.85h24.75Zm.09-2.66h-1.68v1.77h1.68v-1.77Zm-23.33,0h-1.68v1.77h1.68v-1.77Zm2.13,0h-1.69v1.77h1.69v-1.77Zm2.13,0h-1.69v1.77h1.69v-1.77Zm2.04,0h-1.6v1.77h1.6v-1.77h0Zm2.13,0h-1.69v1.77h1.69v-1.77Zm2.13,0h-1.69v1.77h1.69v-1.77Zm2.13,0h-1.68v1.77h1.68v-1.77Zm2.13,0h-1.69v1.77h1.69v-1.77Zm2.13,0h-1.68v1.77h1.68v-1.77Zm2.13,0h-1.68v1.77h1.68v-1.77Zm2.13,0h-1.69v1.77h1.69v-1.77Zm-23.87,30.08h.36v-30.08h-.36v30.08Zm-1.77,0h.44v-30.08h-.44v30.08Zm.89,0h.44v-30.08h-.44v30.08Zm27.6,0h.53v-30.08h-.53v30.08Zm1.77,0h.44v-30.08h-.44v30.08Zm-.88,0h.44v-30.08h-.44v30.08Z"/>
      <path class="cls-3" d="m771.43,412.83v-1.24l-3.64-1.77v6.12l3.64-3.11Zm-80.12-33.01h26.53v7.72h-26.53v-7.72Zm26.53,8.96v11.8h-26.53v-11.8h26.53Zm0,13.66v21.2h-26.53v-21.2h26.53Zm-19.79-20.23h4.52v.98h-4.52v-.98Zm15.53,10.38v5.41h-4.26v-5.41c0-.98,1.07-1.78,2.13-1.78,1.24,0,2.13.8,2.13,1.78h0Zm-6.74,0v5.41h-4.26v-5.41c0-.98.89-1.78,2.13-1.78,1.15,0,2.13.8,2.13,1.78h0Zm-6.83,0v5.41h-4.26v-5.41c0-.98.89-1.78,2.13-1.78,1.15,0,2.13.8,2.13,1.78h0Zm6.65,15.79h4.53v.89h-4.53v-.89Zm-5.59.18h4.52v.89h-4.52v-.89Zm3.2,1.15h4.52v.98h-4.52v-.98Zm2.66,1.68h4.52v.98h-4.52v-.98Zm-5.33,0h4.52v.98h-4.52v-.98Zm-3.46,9.05h4.43v.98h-4.43v-.98Zm-2.22-1.15h4.53v.98h-4.53v-.98Zm-2.22-1.24h4.52v.89h-4.52v-.89Zm17.21-.27h4.52v.98h-4.52v-.98Zm-2.57-36.64h4.52v.98h-4.52v-.98Zm-7.1,3.29h4.52v.98h-4.52v-.98Zm-44.63,64.41h44.9v35.13h-44.9v-35.13Zm44.89,36.64v37.61h-44.9v-37.61h44.9Zm-11.89,27.77h7.63v1.6h-7.63v-1.6Zm-7.19-16.06h7.63v1.6h-7.63v-1.6Zm-9.32.36h7.63v1.6h-7.63v-1.6Zm5.32,2.04h7.63v1.59h-7.63v-1.59Zm4.44,2.84h7.63v1.6h-7.63v-1.6Zm-8.96,0h7.54v1.6h-7.54v-1.6Zm-6.03,15.35h7.63v1.6h-7.63v-1.6Zm-3.64-2.04h7.63v1.6h-7.63v-1.6Zm-3.64-2.13h7.63v1.69h-7.63v-1.69Zm10.47-43.03v9.14h-7.19v-9.14c0-1.68,1.6-3.11,3.64-3.11,1.95,0,3.55,1.42,3.55,3.11h0Zm23.24,0v9.14h-7.18v-9.14c0-1.68,1.51-3.11,3.55-3.11,1.95,0,3.64,1.42,3.64,3.11h0Zm-11.62,0v9.14h-7.19v-9.14c0-1.68,1.6-3.11,3.55-3.11,2.04,0,3.64,1.42,3.64,3.11h0Zm-14.9-17.57h7.63v1.59h-7.63v-1.59Zm17.57-1.87h7.63v1.6h-7.63v-1.6Zm-12.16,5.5h7.63v1.69h-7.63v-1.69Zm-16.59,4.26h44.9v1.6h-44.9v-1.6Zm48.09-99.37l-8.87,7.45h18.28l-9.4-7.45Zm7.63,7.72v9.94h-14.64v-9.94h14.64Zm-8.96,3.82h3.02v-2.93h-3.02v2.93Zm77.54,32.12l-12.51,10.56h25.91l-13.4-10.56Zm10.56,11.27v14.11h7.9v61.31h-37.18v-61.31h8.96v-14.11h20.32Zm-12.42,4.79h4.17v-4.17h-4.17v4.17Zm-7.54,12.78h6.3v1.24h-6.3v-1.24Zm21.92,14.55v7.45h-5.95v-7.45c0-1.42,1.24-2.58,2.93-2.58,1.59,0,3.02,1.15,3.02,2.58h0Zm-9.58,0v7.45h-5.95v-7.45c0-1.42,1.33-2.58,2.93-2.58s3.02,1.15,3.02,2.58h0Zm-9.58,0v7.45h-5.95v-7.45c0-1.42,1.33-2.58,2.93-2.58,1.68,0,3.02,1.15,3.02,2.58h0Zm9.32,21.91h6.3v1.33h-6.3v-1.33Zm-7.72.26h6.3v1.33h-6.3v-1.33Zm4.44,1.69h6.39v1.42h-6.39v-1.42Zm3.72,2.4h6.3v1.33h-6.3v-1.33Zm-7.54,0h6.39v1.33h-6.39v-1.33Zm-4.88,12.69h6.3v1.33h-6.3v-1.33Zm-3.02-1.68h6.3v1.33h-6.3v-1.33Zm-3.02-1.69h6.3v1.33h-6.3v-1.33Zm24.05-.35h6.3v1.24h-6.3v-1.24Zm-3.64-51.28h6.3v1.24h-6.3v-1.24Zm-9.94,4.52h6.3v1.33h-6.3v-1.33Zm-13.84,3.46h37.18v1.77h-37.18v-1.77Zm0,19.16h37.18v3.73h-37.18v-3.73Zm-83.04-41.52l-15.17,12.69h31.41l-16.24-12.69Zm12.86,13.4v16.06h-24.66v-16.06h24.66Zm-15.08,6.03h5.06v-5.06h-5.06v5.06Zm25.73,36.02l1.24-.62v9.49l2.04-.89v-9.49l4.26-2.04v9.49l1.95-.97v-9.49l4.26-2.04v9.49l2.04-.98v-9.49l4.26-2.04v9.49l1.95-.97v-9.49l4.26-2.04v9.49l2.04-.89v-9.58l4.26-2.04v9.49l1.95-.89v-9.49l4.26-2.13v9.49l2.04-.89v-9.49l4.17-2.04v9.49l2.04-.98v-9.49l4.26-2.04v9.49l1.95-.98v-9.49l4.26-2.04v9.49l.89-.35v31.94l-58.38,28.04v-41.52h0Zm65.12-57.67v1.95l-1.68-.8v-8.16l-3.73-1.78v8.25l-1.68-.89v-8.16l-3.64-1.78v8.25l-1.78-.89v-8.16l-3.55-1.77v8.25l-1.77-.89v-8.16l-3.64-1.68v8.07l-1.68-.8v-8.16l-3.73-1.78v8.16l-1.69-.8v-8.16l-3.64-1.78v8.16l-1.68-.8v-8.16l-3.73-1.78v8.16l-1.69-.8v-8.17l-3.64-1.77v8.16l-1.77-.8v-8.16l-3.55-1.77v8.16l-.44-.17v27.51l41.97,20.14v-12.77h9.4v-13.49h-2.66Z"/>
      <path class="cls-3" d="m287.1,378.05l-1.42,13.31-47.11-5.14,1.42-13.31,47.11,5.15Zm-37.53,121.46c24.58,0,45.78,9.76,54.38,23.6h-108.95c8.78-13.84,29.9-23.6,54.56-23.6h0Zm-20.94-35.93l50.04,5.5-.27,3.02-50.13-5.5.36-3.02Zm19.34-111.7l36.02,3.9.27-2.66-36.02-3.9-.26,2.66Zm-8.96,16.5l50.13,5.41-.36,3.11-50.04-5.5.27-3.02Zm-2.04,18.99l50.04,5.5-.27,3.11-50.13-5.5.36-3.11Zm-2.04,19.08l50.04,5.5-.36,3.02-50.04-5.41.35-3.11Zm-2.13,18.99l50.13,5.5-.44,3.11-50.04-5.5.35-3.11Zm-2.04,19.07l50.04,5.5-.36,3.1-50.04-5.5.35-3.1Zm48.53-72.66l1.69-15.26-30.25-3.28-1.69,15.26,30.25,3.28Zm-20.58-11l-.53,5.41-5.23-.53.53-5.41c.18-1.51,1.51-2.66,2.93-2.48,1.42.18,2.49,1.51,2.31,3.02h0Zm18.01,2.04l-.62,5.41-5.23-.62.62-5.41c.18-1.51,1.51-2.57,2.93-2.4,1.42.09,2.48,1.42,2.31,3.02h0Zm-8.96-.98l-.62,5.41-5.23-.62.62-5.41c.09-1.51,1.42-2.66,2.93-2.39,1.42.09,2.39,1.42,2.31,3.01h0Zm-22.89,14.2l-.97,8.78-3.11-.35.98-8.78c.09-.71.8-1.24,1.69-1.15.89.09,1.51.71,1.42,1.51h0Zm30.43,81.18h0l-1.07,8.78-3.02-.36.98-8.78c.09-.71.8-1.24,1.69-1.15.8.18,1.42.8,1.42,1.51h0Zm-4.35-.53h0l-.98,8.88-3.1-.36.98-8.78c.09-.71.8-1.24,1.68-1.15.89.09,1.51.8,1.42,1.42h0Zm-4.35-.35h0l-.98,8.7-3.02-.27.89-8.87c.09-.71.89-1.16,1.77-1.07.8.09,1.42.71,1.33,1.51h0Zm-4.26-.53h0l-.98,8.78-3.1-.35.98-8.78c.09-.71.8-1.16,1.68-1.16.89.18,1.51.8,1.42,1.51h0Zm-4.35-.53h0l-.98,8.87-3.02-.35.89-8.78c.09-.71.89-1.24,1.69-1.16.89.09,1.51.8,1.42,1.42h0Zm-4.26-.35h0l-.98,8.69-3.11-.27.89-8.87c.09-.71.89-1.15,1.77-1.06.89.09,1.51.71,1.42,1.51h0Zm-4.35-.53h0l-.97,8.78-3.11-.35.98-8.7c.09-.8.89-1.24,1.68-1.24.89.18,1.51.8,1.42,1.51h0Zm-4.35-.44h0l-.89,8.78-3.19-.35.98-8.79c.09-.71.89-1.24,1.77-1.15.8.09,1.42.8,1.33,1.51h0Zm-4.26-.44h0l-.98,8.78-3.11-.35.98-8.78c.09-.71.89-1.24,1.69-1.15.8.09,1.51.71,1.42,1.51h0Zm-4.35-.53h0l-.89,8.78-3.19-.36.98-8.69c.09-.8.8-1.24,1.68-1.24.89.18,1.51.8,1.42,1.51h0Zm40.9-14.99h0l-.89,8.78-3.19-.35.98-8.79c.09-.71.8-1.15,1.69-1.15.89.18,1.51.8,1.42,1.51h0Zm-4.26-.44h0l-1.06,8.78-3.02-.35.98-8.79c.09-.71.8-1.24,1.69-1.15.8.09,1.42.8,1.42,1.51h0Zm-4.35-.45h0l-.98,8.79-3.11-.35.98-8.87c.09-.62.8-1.15,1.68-1.06.89.09,1.51.71,1.42,1.51h0Zm-4.26-.53h0l-1.06,8.78-3.02-.26.89-8.79c.18-.8.89-1.24,1.77-1.24.8.18,1.42.8,1.42,1.51h0Zm-4.35-.45h0l-.98,8.79-3.1-.36.98-8.78c.09-.71.8-1.24,1.69-1.15.89.09,1.51.8,1.42,1.51h0Zm-4.35-.44h0l-.98,8.78-3.02-.36.89-8.87c.09-.62.89-1.15,1.69-1.07.89.09,1.51.71,1.42,1.51h0Zm-4.26-.53h0l-.98,8.78-3.11-.27.98-8.78c0-.8.8-1.24,1.68-1.24.89.18,1.51.8,1.42,1.51h0Zm-4.35-.45h0l-.98,8.79-3.02-.35.89-8.78c.09-.71.89-1.24,1.68-1.06.89,0,1.51.71,1.42,1.42h0Zm-4.35-.44h0l-.89,8.78-3.19-.36.98-8.87c.09-.62.89-1.15,1.77-1.06.8.09,1.51.71,1.33,1.51h0Zm-4.26-.53h0l-.98,8.79-3.11-.27.98-8.78c.09-.8.89-1.24,1.69-1.24.8.18,1.51.8,1.42,1.51h0Zm40.9-14.99h0l-.98,8.78-3.11-.27.98-8.87c.09-.71.8-1.16,1.68-1.07.8.09,1.51.71,1.42,1.42h0Zm-4.35-.45h0l-.89,8.79-3.19-.36.98-8.78c.09-.71.89-1.24,1.69-1.15.89.09,1.51.8,1.42,1.51h0Zm-4.26-.44h0l-.98,8.78-3.11-.35.98-8.78c.09-.71.8-1.24,1.68-1.15.8.09,1.42.71,1.42,1.51h0Zm-4.35-.53h0l-.98,8.79-3.11-.27.98-8.78c.09-.8.8-1.24,1.68-1.15.88.09,1.51.71,1.42,1.42h0Zm-4.26-.44h0l-1.07,8.78-3.02-.35.89-8.78c.18-.71.89-1.24,1.77-1.15.8.09,1.42.8,1.42,1.51h0Zm-4.35-.44h0l-.98,8.78-3.1-.36.98-8.78c.09-.71.8-1.24,1.69-1.15.89.09,1.51.8,1.42,1.51h0Zm-4.35-.44h0l-.98,8.69-3.02-.27.89-8.78c.09-.8.89-1.24,1.77-1.15.8.09,1.42.71,1.33,1.51h0Zm-4.26-.53h0l-.98,8.78-3.1-.35.98-8.78c0-.71.8-1.25,1.69-1.07.89.09,1.51.71,1.42,1.42h0Zm-4.35-.45h0l-.98,8.78-3.02-.35.89-8.79c.09-.71.89-1.24,1.68-1.15.89.09,1.51.8,1.42,1.51h0Zm-4.26-.45h0l-.98,8.7-3.19-.27.98-8.79c.09-.8.89-1.24,1.77-1.15.89.09,1.51.71,1.42,1.5h0Zm40.81-14.99h0l-.89,8.69-3.11-.27.98-8.87c0-.71.8-1.15,1.6-1.07.89.09,1.6.71,1.42,1.51h0Zm-4.26-.53h0l-.98,8.78-3.11-.35.98-8.69c.09-.8.8-1.24,1.69-1.24.8.17,1.51.8,1.42,1.51h0Zm-4.35-.53h0l-.89,8.87-3.19-.36,1.07-8.79c0-.71.8-1.24,1.6-1.06.89,0,1.51.71,1.42,1.33h0Zm-4.26-.36h0l-.98,8.79-3.1-.35.98-8.88c.09-.62.8-1.15,1.68-1.06.8.09,1.42.71,1.42,1.51h0Zm-4.35-.53h0l-.98,8.79-3.11-.35.98-8.7c.09-.8.8-1.24,1.69-1.24.89.18,1.51.8,1.42,1.51h0Zm-4.26-.44h0l-1.07,8.79-3.02-.36.89-8.79c.18-.71.89-1.24,1.77-1.06.8,0,1.42.71,1.42,1.42h0Zm-4.35-.44h0l-.98,8.79-3.11-.36.98-8.78c.09-.71.8-1.24,1.69-1.15.89.09,1.51.71,1.42,1.51h0Zm-4.35-.53h0l-.98,8.78-3.02-.36.89-8.69c.18-.8.89-1.25,1.78-1.25.8.18,1.42.8,1.33,1.51h0Zm-4.26-.44h0l-.98,8.78-3.11-.35.98-8.78c.09-.71.8-1.24,1.69-1.07.89,0,1.51.71,1.42,1.42h0Zm-4.35-.44h0l-.98,8.78-3.02-.35.89-8.78c.09-.71.89-1.24,1.69-1.15.89.09,1.51.71,1.42,1.51h0Zm40.9-14.99h0l-.98,8.79-3.1-.36.98-8.87c.09-.62.89-1.15,1.77-1.07.8.09,1.42.71,1.33,1.51h0Zm-4.35-.53h0l-.89,8.79-3.11-.27.98-8.78c0-.8.8-1.25,1.6-1.25.89.18,1.6.8,1.42,1.51h0Zm-4.26-.44h0l-.98,8.78-3.11-.35.98-8.78c.09-.71.8-1.24,1.69-1.07.89,0,1.51.71,1.42,1.42h0Zm-4.35-.44h0l-.89,8.78-3.19-.35,1.06-8.79c0-.71.8-1.24,1.6-1.15.89.09,1.6.71,1.42,1.51h0Zm-4.26-.54h0l-.98,8.78-3.1-.27.98-8.79c.09-.8.8-1.24,1.69-1.24.8.18,1.42.8,1.42,1.51h0Zm-4.35-.44h0l-.98,8.78-3.11-.35.98-8.79c.09-.71.8-1.24,1.69-1.06.89,0,1.51.71,1.42,1.42h0Zm-4.26-.44h0l-.98,8.78-3.11-.35.98-8.79c.09-.71.8-1.24,1.69-1.15.8.09,1.42.71,1.42,1.51h0Zm-4.35-.53h0l-.98,8.78-3.11-.26.98-8.79c.09-.8.8-1.24,1.69-1.15.88.09,1.51.71,1.42,1.42h0Zm-4.26-.44h0l-1.07,8.78-3.01-.36.89-8.78c.18-.71.89-1.24,1.77-1.07.8,0,1.42.71,1.42,1.42h0Zm35.84,20.58l-1.42,13.22-47.11-5.15,1.42-13.22,47.11,5.14Zm-2.04,19.08l-1.51,13.22-47.11-5.15,1.51-13.22,47.11,5.14Zm-2.13,19.08l-1.42,13.22-47.11-5.15,1.42-13.22,47.11,5.15Zm-2.04,18.98l-1.51,13.31-47.02-5.15,1.42-13.31,47.11,5.14Zm-2.13,19.08l-3.02,28.04c-.71-.18-1.42-.36-2.22-.62l2.31-20.49c.18-2.04-1.6-3.81-4.08-4.17-2.48-.27-4.61,1.15-4.79,3.28l-2.13,19.7c-.8-.09-1.51-.18-2.31-.27l2.13-19.7c.18-2.04-1.6-3.9-3.99-4.17-2.4-.27-4.61,1.15-4.79,3.2l-2.22,20.05c-.71-.09-1.42-.09-2.04-.09h-.27l2.22-20.23c.18-2.04-1.6-3.9-3.99-4.17-2.49-.27-4.61,1.16-4.88,3.19l-2.31,21.65c-.8.09-1.6.17-2.4.27l2.4-22.18c.27-1.95-1.6-3.9-3.99-4.17-2.4-.27-4.62,1.15-4.79,3.28l-2.75,24.75c-.89.18-1.86.44-2.75.71l3.55-33,47.11,5.14Z"/>
      <path class="cls-3" d="m590.97,520l-33.98.35,4.53-5.5h0l1.68-1.95h0l1.07-1.33h0l1.68-1.95h0l1.06-1.33h0l1.6-1.86,22.45-26.97,22.62,26.53c-.18.18-.45.44-.62.62l14.28-13.31v-.35.35c2.84,2.48,5.68,4.97,8.52,7.36,1.95-3.1,5.32-7.01,9.58-6.56h0c7.36.27,8.43,11.62,8.43,11.62l-3.91.09.09,2.22c1.42,1.42,2.48,3.19,3.1,5.14.09.09.09.18.18.27l.27.35.09.27c.18.36.27.71.53,1.16l-15.71.09c5.24,0,10.47-.09,15.71-.09l-.27-.44-.18-.44-.09-.27c.18.36.27.71.53,1.16.18.53.8,2.04.89,2.57l8.25.36c1.33.35,2.04.27,2.93,4.61l-25.55.18c.09.44-12.07-.18-12.07-.18l-25.91-.27s0-1.6-.18-2.31l-11.62-.17Zm24.57-10.2h0c.35.09.71.27,1.15.44-.44-.18-.8-.35-1.15-.44h0Zm5.95,1.78c.35,0,.62,0,.97.09-.35-.09-.62-.09-.97-.09h0Zm5.41,8.07c-.27-.27-.62-.44-.98-.62.35.18.71.35.98.62h0Zm26.44-6.21c-.09-.09-.09-.18-.18-.27h0l.18.27Z"/>
      <path class="cls-3" d="m640.03,459.5v2.66h-13.58v14.28h5.86l-4.08,1.33v45.34h-8.96v-45.25l-4.17-1.42h5.94v-14.28h-45.16v14.28h5.95l-4.08,1.33v45.34h-9.05v-45.25l-3.99-1.42h5.85v-14.28h-13.57v-2.66h-3.64v-1.95h17.21v-7.72h-4.08v-3.02c-5.59-.8-11.35-1.77-17.12-2.93v-6.57c-2.13-.35-4.35-.8-6.57-1.33v-5.33c-2.48-.44-5.05-.98-7.54-1.51v-4.79c42.67,7.19,84.82,6.74,126.43,0v4.79c-2.48.53-4.97,1.06-7.54,1.51v5.33c-2.13.53-4.35.98-6.57,1.42v6.48c-5.59,1.24-11.36,2.31-17.12,3.1v2.84h-4v7.72h17.13v1.95h-3.55Zm-60.06-11.18v1.51h-4.08v7.72h18.54v-8.52c-4.79-.09-9.58-.35-14.46-.71h0Zm41.08,1.51h-4.08v-1.42c-4.71.44-9.58.62-14.38.71v8.43h18.45v-7.72Z"/>
      <path class="cls-3" d="m535.96,131.58c-2.48,2.31-1.77,2.04-7.54.35-5.06-1.6-2.66-2.13-7.18.44-4.08,2.4-10.74,4.79-13.84,6.65,1.16,2.57,11.09,11,13.49,14.46-.89.44-1.6.8-2.57,1.24-1.51.71-1.15.71-2.93-.35-3.9-2.22-16.42-9.32-18.9-10.38-3.28,1.42-11.98,5.86-14.99,5.68-1.42-.09-3.73-.44-3.28-2.22,1.15-4.35,8.96-6.74,14.02-8.96,2.04-.89,1.51-.8,1.95-3.02.54-2.4,3.91-19.79,4.7-20.67.36-.27,3.11-1.42,3.64-1.69.27,1.6.44,3.37.53,5.06l.89,9.85c0,1.6.27,3.46.53,4.97,2.31-1.15,4.61-2.13,7.01-3.28,11.89-5.68,9.76-1.86,12.51-8.25,1.6-3.55,1.6-5.68,5.06-5.15-.62,7.1,1.33,11.53,6.92,15.26h0Zm-100.96-68.76c3.2.98,2.48,1.07,6.92-3.01,3.9-3.55,1.51-3.02,6.74-2.57,4.61.35,11.71-.27,15.35.09.09,2.75-5.32,14.64-6.03,18.81h2.84c1.69,0,1.33.18,2.57-1.51,2.57-3.73,10.74-15.53,12.6-17.48,3.64-.09,13.31.09,15.97-1.24,1.24-.71,3.19-2.13,2.04-3.55-2.93-3.37-11-2.22-16.5-2.04-2.22,0-1.68-.09-3.11-1.86-1.51-1.95-11.98-16.24-13.04-16.68-.44-.09-3.46,0-3.99,0,.36,1.6.98,3.19,1.6,4.79l3.46,9.32c.62,1.42,1.24,3.28,1.68,4.7-2.57-.09-5.14,0-7.81,0-13.13,0-9.49,2.57-14.82-2.04-2.92-2.57-3.81-4.44-6.74-2.49,3.55,6.12,3.73,11,.27,16.77h0Zm-1.42-9.05c1.33-.18,1.77,1.86.27,2.13l-2.13.27c-1.33.27-1.87-1.86-.36-2.13l2.22-.27Zm-188.44,141.95c-.71,1.42-2.66.35-2.04-.89l.53-1.15c.71-1.33,2.66-.27,1.95.98l-.44,1.06Zm3.37-7.01c-.71,1.33-2.66.36-1.95-.98l.98-1.95c.62-1.33,2.57-.27,1.95.98l-.98,1.95Zm3.99-7.81c-.62,1.24-2.66.35-1.95-.98l1.06-1.95c.62-1.24,2.57-.35,1.95,1.07l-1.07,1.86Zm4.26-7.63c-.8,1.33-2.66.09-1.95-1.07l1.15-1.95c.8-1.33,2.57-.09,1.86,1.07l-1.06,1.95Zm4.43-7.54c-.8,1.24-2.66.09-1.86-1.15l1.15-1.86c.71-1.24,2.66-.09,1.86,1.15l-1.16,1.86Zm4.7-7.45c-.71,1.15-2.66.09-1.86-1.15l1.24-1.86c.71-1.15,2.66-.09,1.77,1.24l-1.15,1.77Zm4.88-7.19c-.89,1.15-2.57-.18-1.77-1.33l1.24-1.77c.89-1.15,2.66.18,1.77,1.33l-1.24,1.77Zm5.15-7.1c-.89,1.15-2.57-.18-1.69-1.33l1.33-1.77c.89-1.15,2.57.27,1.68,1.33l-1.33,1.77Zm5.15-6.65c-.8.44-1.77-.27-1.68-1.15-.09-.53.35-1.24.98-1.33l.71-.89c.89-1.06,2.66.27,1.68,1.42l-.18.27.35.09c1.42.53.53,2.57-.8,2.04l-1.07-.44Zm5.95-6.92c-1.07,1.07-2.57-.44-1.6-1.51l1.42-1.6c1.06-1.15,2.57.45,1.6,1.42l-1.42,1.69Zm5.94-6.48c-.98,1.07-2.66-.44-1.6-1.51l1.51-1.6c.98-1.06,2.57.45,1.6,1.51l-1.51,1.6Zm6.12-6.21c-1.15.98-2.57-.71-1.51-1.6l1.51-1.51c1.15-1.07,2.57.62,1.6,1.6l-1.6,1.51Zm6.39-6.03c-1.07.98-2.57-.62-1.51-1.6l1.69-1.51c1.06-.98,2.57.71,1.42,1.68l-1.6,1.42Zm6.57-5.68c-.98.89-2.48-.71-1.33-1.68l1.69-1.42c1.24-.98,2.48.89,1.33,1.69l-1.68,1.42Zm6.92-5.5c-1.24.89-2.48-.89-1.33-1.68l1.69-1.33c1.24-.89,2.48.89,1.33,1.69l-1.69,1.33Zm7.01-5.15c-1.06.8-2.48-.89-1.24-1.77.62-.44,1.24-.89,1.86-1.24,1.07-.8,2.48.89,1.24,1.77-.62.45-1.24.8-1.86,1.24h0Zm7.28-4.88c-1.24.8-2.31-1.15-1.15-1.86l1.86-1.15c1.24-.8,2.4,1.15,1.15,1.86l-1.86,1.15Zm7.45-4.52c-1.15.71-2.39-1.15-1.06-1.95l1.95-1.06c1.15-.71,2.39,1.15,1.06,1.95l-1.95,1.06Zm7.72-4.26c-1.42.71-2.31-1.33-1.07-1.95l1.95-1.07c1.33-.62,2.31,1.42,1.07,2.04l-1.95.98Zm7.81-3.9c-1.24.62-2.31-1.33-.98-2.04.71-.27,1.33-.62,2.04-.89,1.24-.62,2.22,1.33.89,1.95-.62.35-1.33.62-1.95.98h0Zm7.98-3.64c-1.42.53-2.13-1.51-.89-2.04l2.04-.89c1.42-.53,2.13,1.6.8,2.04l-1.95.89Zm8.07-3.28c-1.33.53-2.13-1.51-.8-2.04l2.13-.8c1.24-.53,2.13,1.51.71,2.04l-2.04.8Zm8.25-3.01c-1.33.44-2.13-1.6-.71-2.04.71-.27,1.42-.53,2.13-.71,1.24-.53,2.04,1.51.62,2.04-.71.27-1.33.44-2.04.71h0Zm8.34-2.66c-1.51.35-1.95-1.77-.62-2.13l2.13-.62c1.42-.35,1.95,1.77.54,2.13l-2.04.62Zm8.43-2.4c-1.42.36-1.95-1.77-.53-2.13l2.13-.53c1.33-.35,1.95,1.77.53,2.13l-2.13.53Zm8.52-2.04c-1.33.35-2.04-1.77-.53-2.22l2.22-.44c1.51-.27,1.77,1.95.44,2.13l-2.13.53Zm8.51-1.86c-1.42.27-1.77-1.86-.35-2.13l2.13-.35c1.51-.27,1.86,1.86.44,2.13l-2.22.35Zm8.7-1.51c-1.42.27-1.86-1.86-.35-2.13l2.13-.35c1.42-.27,1.86,1.95.35,2.22l-2.13.26ZM127.58,143.29c-2.49,2.31-1.77,2.04-7.54.27-5.06-1.51-2.66-2.13-7.19.53-4.08,2.31-10.74,4.79-13.84,6.65,1.15,2.57,11.09,11,13.49,14.46-.89.44-1.6.71-2.57,1.15-1.51.8-1.15.8-2.93-.27-3.9-2.22-16.41-9.4-18.9-10.38-3.28,1.42-11.98,5.86-14.99,5.68-1.42-.09-3.73-.53-3.28-2.31,1.15-4.35,8.96-6.74,14.02-8.96,2.04-.89,1.51-.71,1.95-2.93.54-2.48,3.9-19.79,4.7-20.67.27-.26,3.1-1.51,3.64-1.68.27,1.6.45,3.28.53,4.97l.89,9.94c0,1.51.27,3.46.54,4.88,2.31-1.07,4.61-2.13,7.01-3.19,11.89-5.68,9.67-1.86,12.51-8.25,1.6-3.55,1.51-5.68,5.06-5.15-.62,7.1,1.33,11.53,6.92,15.26h0Zm-2.57-8.78c-1.33.44-.8,2.48.71,2.13l2.04-.71c1.24-.35.8-2.49-.71-2.13l-2.04.71Zm231.12,47.73c1.15.98,2.39-.8,1.33-1.68l-.89-.71c-1.24-.98-2.48.8-1.42,1.69l.98.71Zm-6.12-4.88c1.15.89,2.48-.8,1.42-1.69l-1.77-1.42c-1.15-.89-2.48.89-1.33,1.77l1.69,1.33Zm-6.92-5.32c1.06.89,2.48-.8,1.33-1.77l-1.77-1.33c-1.15-.8-2.57.89-1.33,1.78l1.77,1.33Zm-7.1-5.15c1.24.89,2.4-1.06,1.24-1.77l-1.86-1.24c-1.24-.89-2.39,1.07-1.24,1.77l1.86,1.24Zm-7.27-4.88c1.24.8,2.4-1.06,1.24-1.86l-1.86-1.15c-1.24-.8-2.48.98-1.24,1.78l1.86,1.24Zm-7.36-4.7c1.15.71,2.39-1.06,1.06-1.86l-1.86-1.15c-1.15-.71-2.39,1.06-1.15,1.86l1.95,1.15Zm-7.63-4.43c1.42.71,2.31-1.24,1.15-1.95l-1.95-1.07c-1.33-.71-2.3,1.24-1.06,1.95l1.86,1.07Zm-7.63-4.17c1.33.62,2.22-1.33.98-1.95l-1.95-1.07c-1.33-.62-2.31,1.33-.98,1.95l1.95,1.06Zm-7.9-3.9c1.33.62,2.31-1.33.97-2.04l-1.95-.89c-1.24-.62-2.3,1.24-.98,1.95l1.95.98Zm-7.9-3.64c1.42.53,2.13-1.51.8-2.04l-2.04-.89c-1.33-.53-2.13,1.51-.8,2.04l2.04.89Zm-16.33-6.39c1.51.44,1.95-1.69.71-2.04l-2.13-.71c-1.51-.44-1.95,1.69-.71,2.04l2.13.71Zm-8.34-2.66c1.33.44,1.95-1.68.62-2.13l-2.13-.62c-1.42-.36-2.04,1.77-.62,2.13l2.13.62Zm-8.43-2.3c1.24.35,2.04-1.68.53-2.13l-2.13-.53c-1.6-.35-1.86,1.86-.53,2.13l2.13.53Zm-8.52-2.04c1.42.27,1.77-1.87.44-2.13l-2.22-.44c-1.42-.27-1.87,1.86-.45,2.13l2.22.44Zm-8.6-1.6c1.33.27,1.86-1.86.35-2.22-.71-.09-1.51-.27-2.22-.35-1.33-.27-1.86,1.86-.35,2.22.71.09,1.51.18,2.22.36h0Zm-8.7-1.33c1.51.18,1.69-2.04.27-2.13l-2.13-.27c-1.51-.18-1.68,2.04-.27,2.13l2.13.27Zm-8.69-.89c1.42.09,1.69-2.04.18-2.22l-2.22-.18c-1.33-.18-1.68,2.04-.09,2.22l2.13.18Zm-8.69-.62c1.51.09,1.42-2.13.09-2.13l-2.22-.09c-1.51-.09-1.51,2.13-.09,2.13l2.22.09Zm-8.78-.18c1.42,0,1.51-2.22,0-2.22h-2.22c-1.33,0-1.51,2.22,0,2.22h2.22Zm-8.78.18c1.6-.18,1.33-2.31-.09-2.22l-2.13.09c-1.51.09-1.33,2.31.09,2.22l2.13-.09Zm-8.69.44c1.42-.09,1.24-2.31-.18-2.22l-2.22.18c-1.42.09-1.24,2.31.18,2.22l2.22-.18Zm-8.69.8c1.33-.09,1.24-2.31-.27-2.13-.71.09-1.51.18-2.22.27-1.33.09-1.24,2.31.27,2.13.71-.09,1.42-.18,2.22-.27h0Zm-8.7,1.15c1.51-.27.98-2.4-.35-2.13l-2.22.26c-1.42.36-.98,2.49.35,2.22l2.22-.36Zm-8.69,1.51c1.42-.26,1.07-2.48-.35-2.22l-2.22.44c-1.33.27-.98,2.4.44,2.13l2.13-.36Zm-8.52,1.68c1.33-.18.98-2.4-.53-2.13l-2.13.53c-1.51.36-.8,2.49.53,2.13l2.13-.53Zm-8.52,2.13c1.42-.45.8-2.57-.62-2.13l-2.13.53c-1.42.35-.8,2.48.62,2.13l2.13-.53Zm-8.52,2.31c1.42-.35.89-2.57-.62-2.13l-2.04.62c-1.33.35-.89,2.48.62,2.13l2.04-.62Zm397.29-10.56c-1.33.44-.8,2.48.71,2.13l2.04-.71c1.24-.36.89-2.49-.71-2.04l-2.04.62Zm231.12,47.82c1.15.89,2.48-.89,1.33-1.69l-.89-.8c-1.24-.98-2.48.89-1.42,1.69l.98.8Zm-6.12-4.88c1.16.89,2.48-.89,1.42-1.77l-1.78-1.33c-1.15-.89-2.48.8-1.33,1.68l1.68,1.42Zm-6.92-5.41c1.06.89,2.48-.8,1.33-1.69l-1.77-1.33c-1.15-.89-2.57.8-1.33,1.77l1.78,1.24Zm-7.1-5.06c1.24.8,2.4-1.06,1.24-1.86l-1.77-1.24c-1.33-.8-2.48,1.07-1.24,1.87l1.77,1.24Zm-7.27-4.97c1.24.8,2.39-1.06,1.24-1.86l-1.86-1.15c-1.24-.8-2.4,1.07-1.24,1.86l1.86,1.15Zm-7.37-4.7c1.16.8,2.4-.98,1.16-1.86l-1.95-1.15c-1.06-.71-2.39,1.06-1.06,1.95l1.86,1.06Zm-7.54-4.44c1.33.71,2.22-1.24,1.07-1.86l-1.95-1.15c-1.33-.62-2.31,1.33-1.06,1.95l1.95,1.07Zm-7.72-4.17c1.33.62,2.31-1.24.97-1.95l-1.95-.98c-1.33-.71-2.22,1.33-.98,1.95l1.95.97Zm-7.9-3.9c1.33.62,2.31-1.33.98-1.95l-1.95-.98c-1.24-.62-2.3,1.33-.98,1.95l1.95.98Zm-7.89-3.64c1.42.53,2.13-1.51.8-2.04l-1.95-.89c-1.42-.53-2.22,1.6-.89,2.04l2.04.89Zm-8.16-3.28c1.33.53,2.22-1.51.8-2.13l-2.04-.71c-1.33-.53-2.13,1.51-.8,2.04l2.04.8Zm-8.16-3.02c1.51.44,1.95-1.77.71-2.13l-2.13-.71c-1.51-.44-1.95,1.68-.71,2.13l2.13.71Zm-8.34-2.75c1.42.44,1.95-1.68.62-2.04l-2.13-.62c-1.42-.45-2.04,1.68-.62,2.04l2.13.62Zm-8.43-2.3c1.24.35,2.04-1.69.53-2.13l-2.13-.53c-1.6-.35-1.86,1.86-.53,2.13l2.13.53Zm-8.52-1.95c1.42.26,1.77-1.95.44-2.22l-2.22-.44c-1.42-.27-1.78,1.86-.35,2.13l2.13.53Zm-8.61-1.69c1.33.27,1.86-1.87.35-2.13-.71-.18-1.42-.27-2.22-.44-1.24-.18-1.86,1.95-.35,2.22.8.09,1.51.27,2.22.36h0Zm-8.7-1.33c1.51.18,1.69-1.95.27-2.13l-2.13-.27c-1.51-.18-1.69,2.04-.27,2.13l2.13.27Zm-8.69-.89c1.42.18,1.68-2.04.18-2.22l-2.22-.18c-1.33-.09-1.68,2.04-.09,2.22l2.13.18Zm-8.69-.53c1.51,0,1.42-2.22.09-2.22l-2.22-.09c-1.51,0-1.51,2.13-.09,2.22l2.22.09Zm-8.79-.27c1.42,0,1.51-2.13,0-2.22h-2.22c-1.33,0-1.51,2.22,0,2.22h2.22Zm-8.78.18c1.6-.09,1.33-2.31-.09-2.22l-2.13.09c-1.51.09-1.33,2.31.09,2.22l2.13-.09Zm-8.7.44c1.42-.09,1.33-2.31-.18-2.13l-2.22.18c-1.42.09-1.24,2.22.18,2.13l2.22-.18Zm-8.69.89c1.33-.18,1.24-2.4-.27-2.22-.71.09-1.51.18-2.22.27-1.33.09-1.24,2.31.27,2.13.71-.09,1.42-.18,2.22-.18h0Zm-8.7,1.06c1.51-.27.97-2.4-.35-2.13l-2.22.35c-1.42.27-.98,2.4.35,2.13l2.22-.36Zm-8.7,1.51c1.42-.27,1.07-2.4-.35-2.13l-2.22.35c-1.33.27-.98,2.49.44,2.22l2.13-.44Zm-8.51,1.78c1.33-.27.98-2.48-.53-2.13l-2.13.44c-1.51.45-.8,2.49.53,2.13l2.13-.44Zm-8.52,2.04c1.42-.44.8-2.48-.53-2.13l-2.22.53c-1.42.44-.8,2.48.62,2.13l2.13-.53Zm-8.43,2.31c1.33-.35.8-2.49-.62-2.13l-2.13.62c-1.33.35-.89,2.57.62,2.13l2.13-.62Z"/>
    </g>
  </g>
</svg>